<svg width="24" height="24" viewBox="0 0 24 24" fill="none" xmlns="http://www.w3.org/2000/svg">
<path fill-rule="evenodd" clip-rule="evenodd" d="M4.8 19.2C4.305 19.2 3.8811 19.0236 3.5283 18.6708C3.1755 18.318 2.9994 17.8944 3 17.4V4.8C3 4.305 3.1764 3.8811 3.5292 3.5283C3.882 3.1755 4.3056 2.9994 4.8 3H17.4C17.895 3 18.3189 3.1764 18.6717 3.5292C19.0245 3.882 19.2006 4.3056 19.2 4.8V10.8063C18.6405 10.5405 18.0355 10.3547 17.4 10.2638V9.59251H4.8V12.6075H11.546C11.1239 13.1441 10.787 13.7509 10.5558 14.4075H4.8V17.4H10.2638C10.3547 18.0355 10.5405 18.6405 10.8063 19.2H4.8ZM4.8 7.7925H17.4V4.8H4.8V7.7925ZM5.7 7.185V5.385H7.5V7.185H5.7ZM5.7 12V10.2H7.5V12H5.7ZM5.7 16.815V15.015H7.5V16.815H5.7ZM15.7023 20.7773C15.8743 20.9258 16.0748 21 16.3038 21H16.6963C16.9259 21.0007 17.1264 20.9307 17.2977 20.7901C17.4691 20.6495 17.5794 20.4638 17.6284 20.2328L17.7756 19.515C17.9725 19.4318 18.1566 19.3451 18.328 19.2546C18.4994 19.1642 18.6751 19.053 18.8549 18.921L19.5663 19.1438C19.7789 19.2098 19.9834 19.2015 20.1796 19.119C20.3758 19.0365 20.5312 18.9045 20.6457 18.723L20.8665 18.3518C20.9809 18.1544 21.0218 17.9442 20.9891 17.7211C20.9564 17.498 20.8501 17.3123 20.6702 17.1638L20.1305 16.6935C20.1632 16.4955 20.1796 16.281 20.1796 16.05C20.1796 15.819 20.1632 15.6045 20.1305 15.4065L20.6702 14.9363C20.8501 14.7878 20.9564 14.598 20.9891 14.367C21.0218 14.136 20.9809 13.9215 20.8665 13.7235L20.6702 13.377C20.5564 13.1955 20.3971 13.0635 20.1924 12.981C19.9876 12.8985 19.7789 12.8903 19.5663 12.9563L18.8549 13.179C18.6744 13.0463 18.4984 12.9348 18.327 12.8444C18.1557 12.754 17.9718 12.6675 17.7756 12.585L17.6284 11.892C17.58 11.661 17.4698 11.4713 17.2977 11.3228C17.1257 11.1743 16.9252 11.1 16.6963 11.1H16.3038C16.0742 11.0993 15.8737 11.1693 15.7023 11.3099C15.5309 11.4505 15.4207 11.6363 15.3716 11.8673L15.2244 12.585C15.0275 12.6682 14.8434 12.755 14.672 12.8454C14.5006 12.9358 14.325 13.047 14.1451 13.179L13.4337 12.9563C13.2211 12.8903 13.0167 12.8985 12.8204 12.981C12.6242 13.0635 12.4688 13.1955 12.3543 13.377L12.1336 13.7483C12.0191 13.9469 11.9782 14.1575 12.0109 14.3799C12.0436 14.6023 12.1499 14.7878 12.3298 14.9363L12.8695 15.4065C12.8368 15.6045 12.8204 15.819 12.8204 16.05C12.8204 16.281 12.8368 16.4955 12.8695 16.6935L12.3298 17.1638C12.1499 17.3123 12.0436 17.502 12.0109 17.733C11.9782 17.964 12.0191 18.1785 12.1336 18.3765L12.3298 18.723C12.4449 18.9045 12.6045 19.0365 12.8086 19.119C13.0127 19.2015 13.2211 19.2098 13.4337 19.1438L14.1451 18.921C14.3256 19.0537 14.5016 19.1652 14.673 19.2556C14.8444 19.346 15.0282 19.4325 15.2244 19.515L15.3716 20.208C15.42 20.439 15.5302 20.6288 15.7023 20.7773ZM17.8865 17.4479C17.5018 17.836 17.0397 18.03 16.5 18.03C15.961 18.0307 15.4992 17.837 15.1145 17.4489C14.7299 17.0608 14.5376 16.5945 14.5376 16.05C14.5369 15.5062 14.7289 15.0402 15.1135 14.6521C15.4982 14.264 15.9603 14.07 16.5 14.07C17.039 14.0693 17.5009 14.2631 17.8855 14.6511C18.2701 15.0392 18.4625 15.5055 18.4625 16.05C18.4631 16.5938 18.2711 17.0598 17.8865 17.4479Z" fill="#222222"/>
</svg>
