<svg width="100" height="26" viewBox="0 0 100 26" fill="none" xmlns="http://www.w3.org/2000/svg">
<g clip-path="url(#clip0_14_4960)">
<path d="M100.004 0H92.2954V24.3654H100.004V0Z" fill="#005CA2"/>
<path d="M29.7266 0V5.12911H38.7407V24.3654H46.4658V5.12911H55.4798V0H29.7266Z" fill="#005CA2"/>
<path d="M25.1662 5.12911V0H0V19.7033C0 22.272 1.65422 24.357 3.69428 24.357H25.1662V19.2279H7.72925V14.741H25.1662V9.61187H7.72925V5.12494H25.1662V5.12911Z" fill="#005CA2"/>
<path d="M78.721 13.0021H69.6248L80.055 26H89.1552L78.721 13.0021Z" fill="#EA5504"/>
<path d="M82.7559 0H59.3547V24.3654H67.084V5.12911H78.7251V13.0021H86.4543V4.65373C86.4543 2.085 84.8001 0 82.7559 0Z" fill="#EA5504"/>
</g>
<defs>
<clipPath id="clip0_14_4960">
<rect width="100" height="26" fill="white"/>
</clipPath>
</defs>
</svg>
