<svg width="503" height="600" viewBox="0 0 503 600" fill="none" xmlns="http://www.w3.org/2000/svg">
<g clip-path="url(#clip0_14_4391)">
<rect width="503" height="600" fill="white"/>
<path fill-rule="evenodd" clip-rule="evenodd" d="M503 600C454.365 532.053 422.835 422.976 422.835 300C422.835 177.024 454.365 67.9471 503 0H0V600H503Z" fill="#F4FAFF"/>
<path d="M415.811 430.704C408.244 438.543 401.083 443.598 395.426 447.591C328.927 494.539 250.241 480.855 233.518 477.512C208.823 472.577 161.088 463.038 126.578 423.105C74.3672 362.69 82.497 267.507 122.997 204.676C130.405 193.183 169.536 129.394 249.069 119.164C297.202 112.973 353.309 125.459 393.94 158.954C479.229 229.264 473.157 371.3 415.811 430.704Z" fill="url(#paint0_linear_14_4391)"/>
<path d="M160.509 219.933C160.544 218.157 162.037 216.727 163.867 216.727H274.877C276.733 216.727 278.703 218.201 278.703 220.002V471.53C278.703 472.874 277.918 474.164 276.938 475.112C275.958 476.061 274.512 476.592 273.127 476.589L160.902 476.292C159.505 476.288 158.139 475.74 157.163 474.772C156.187 473.802 155.636 472.49 155.662 471.134L160.509 219.934V219.933Z" fill="#BDD0FB"/>
<g opacity="0.52">
<g style="mix-blend-mode:overlay">
<path d="M224.262 234.551L260.576 234.429L260.562 230.019L224.288 230.129L224.262 234.551Z" fill="white"/>
</g>
<g style="mix-blend-mode:overlay">
<path d="M224.162 250.8L260.625 250.637L260.612 246.19L224.189 246.341L224.162 250.8Z" fill="white"/>
</g>
<g style="mix-blend-mode:overlay">
<path d="M224.062 267.181L260.676 266.979L260.661 262.495L224.089 262.686L224.062 267.181Z" fill="white"/>
</g>
<g style="mix-blend-mode:overlay">
<path d="M223.96 283.699L260.726 283.458L260.712 278.936L223.988 279.167L223.96 283.699Z" fill="white"/>
</g>
<g style="mix-blend-mode:overlay">
<path d="M223.858 300.356L260.777 300.072L260.762 295.513L223.886 295.785L223.858 300.356Z" fill="white"/>
</g>
<g style="mix-blend-mode:overlay">
<path d="M223.651 334.087L260.88 333.718L260.867 329.082L223.68 329.439L223.651 334.087Z" fill="white"/>
</g>
<g style="mix-blend-mode:overlay">
<path d="M223.335 385.761L261.039 385.258L261.024 380.505L223.364 380.994L223.335 385.761Z" fill="white"/>
</g>
<g style="mix-blend-mode:overlay">
<path d="M223.755 317.15L260.828 316.824L260.815 312.227L223.783 312.542L223.755 317.15Z" fill="white"/>
</g>
<g style="mix-blend-mode:overlay">
<path d="M223.547 351.166L260.932 350.754L260.919 346.079L223.575 346.48L223.547 351.166Z" fill="white"/>
</g>
<g style="mix-blend-mode:overlay">
<path d="M223.442 368.391L260.985 367.933L260.971 363.218L223.47 363.664L223.442 368.391Z" fill="white"/>
</g>
<g style="mix-blend-mode:overlay">
<path d="M223.227 403.279L261.092 402.731L261.077 397.936L223.258 398.472L223.227 403.279Z" fill="white"/>
</g>
<g style="mix-blend-mode:overlay">
<path d="M223.119 420.948L261.147 420.354L261.131 415.519L223.149 416.1L223.119 420.948Z" fill="white"/>
</g>
<g style="mix-blend-mode:overlay">
<path d="M223.01 438.771L261.2 438.129L261.185 433.25L223.04 433.88L223.01 438.771Z" fill="white"/>
</g>
<g style="mix-blend-mode:overlay">
<path d="M222.9 456.747L261.256 456.057L261.24 451.137L222.931 451.813L222.9 456.747Z" fill="white"/>
</g>
<g style="mix-blend-mode:overlay">
<path d="M176.65 234.711L213.192 234.588L213.232 230.164L176.732 230.276L176.65 234.711Z" fill="white"/>
</g>
<g style="mix-blend-mode:overlay">
<path d="M176.354 251.01L213.047 250.848L213.087 246.386L176.436 246.538L176.354 251.01Z" fill="white"/>
</g>
<g style="mix-blend-mode:overlay">
<path d="M176.055 267.446L212.901 267.243L212.941 262.744L176.138 262.936L176.055 267.446Z" fill="white"/>
</g>
<g style="mix-blend-mode:overlay">
<path d="M175.754 284.018L212.753 283.774L212.793 279.237L175.837 279.471L175.754 284.018Z" fill="white"/>
</g>
<g style="mix-blend-mode:overlay">
<path d="M175.45 300.728L212.604 300.441L212.646 295.868L175.534 296.142L175.45 300.728Z" fill="white"/>
</g>
<g style="mix-blend-mode:overlay">
<path d="M174.835 334.571L212.303 334.199L212.345 329.549L174.92 329.909L174.835 334.571Z" fill="white"/>
</g>
<g style="mix-blend-mode:overlay">
<path d="M173.892 386.418L211.841 385.913L211.884 381.143L173.979 381.636L173.892 386.418Z" fill="white"/>
</g>
<g style="mix-blend-mode:overlay">
<path d="M175.144 317.578L212.455 317.25L212.496 312.638L175.228 312.954L175.144 317.578Z" fill="white"/>
</g>
<g style="mix-blend-mode:overlay">
<path d="M174.523 351.707L212.151 351.292L212.192 346.601L174.608 347.005L174.523 351.707Z" fill="white"/>
</g>
<g style="mix-blend-mode:overlay">
<path d="M174.209 368.989L211.997 368.529L212.038 363.8L174.295 364.246L174.209 368.989Z" fill="white"/>
</g>
<g style="mix-blend-mode:overlay">
<path d="M173.572 403.998L211.685 403.446L211.728 398.635L173.66 399.174L173.572 403.998Z" fill="white"/>
</g>
<g style="mix-blend-mode:overlay">
<path d="M173.25 421.728L211.526 421.13L211.57 416.277L173.338 416.863L173.25 421.728Z" fill="white"/>
</g>
<g style="mix-blend-mode:overlay">
<path d="M172.925 439.612L211.368 438.967L211.412 434.072L173.014 434.705L172.925 439.612Z" fill="white"/>
</g>
<g style="mix-blend-mode:overlay">
<path d="M172.597 457.652L211.206 456.957L211.251 452.02L172.686 452.701L172.597 457.652Z" fill="white"/>
</g>
</g>
<path d="M96.8066 289.311C96.8546 287.256 98.9661 285.566 101.552 285.566H199.324C201.945 285.566 204.52 287.345 204.52 289.427V475.56C204.52 476.561 203.793 477.522 202.901 478.229C202.008 478.936 200.685 479.332 199.423 479.329L97.196 479.108C95.9236 479.105 94.6791 478.697 93.7894 477.974C92.8997 477.252 92.3982 476.254 92.4222 475.243L96.8052 289.31L96.8066 289.311Z" fill="#BDD0FB"/>
<path d="M168.811 307.499L196.664 307.47L196.886 296.128H169.005L168.811 307.499Z" fill="url(#paint1_linear_14_4391)"/>
<path d="M137.591 307.494L165.417 307.463L165.607 296.128H137.754L137.591 307.494Z" fill="url(#paint2_linear_14_4391)"/>
<path d="M106.402 307.487L134.199 307.458L134.359 296.128H106.535L106.402 307.487Z" fill="url(#paint3_linear_14_4391)"/>
<path d="M168.463 327.856L196.268 327.871L196.489 316.603L168.657 316.594L168.463 327.856Z" fill="url(#paint4_linear_14_4391)"/>
<path d="M137.296 327.84L165.074 327.855L165.264 316.593L137.46 316.583L137.296 327.84Z" fill="url(#paint5_linear_14_4391)"/>
<path d="M106.162 327.825L133.911 327.839L134.071 316.582L106.295 316.574L106.162 327.825Z" fill="url(#paint6_linear_14_4391)"/>
<path d="M168.116 348.075L195.872 348.097L196.092 336.869L168.308 336.851L168.116 348.075Z" fill="url(#paint7_linear_14_4391)"/>
<path d="M137.004 348.048L164.732 348.072L164.922 336.849L137.167 336.83L137.004 348.048Z" fill="url(#paint8_linear_14_4391)"/>
<path d="M105.923 348.023L133.624 348.045L133.783 336.829L106.057 336.81L105.923 348.023Z" fill="url(#paint9_linear_14_4391)"/>
<path d="M167.771 368.222L195.479 368.254L195.697 357.064L167.963 357.038L167.771 368.222Z" fill="url(#paint10_linear_14_4391)"/>
<path d="M136.712 368.187L164.393 368.219L164.582 357.034L136.875 357.007L136.712 368.187Z" fill="url(#paint11_linear_14_4391)"/>
<path d="M105.686 368.15L133.339 368.182L133.498 357.005L105.818 356.977L105.686 368.15Z" fill="url(#paint12_linear_14_4391)"/>
<path d="M167.427 388.301L195.087 388.341L195.304 377.191L167.617 377.155L167.427 388.301Z" fill="url(#paint13_linear_14_4391)"/>
<path d="M136.422 388.254L164.055 388.296L164.243 377.15L136.583 377.114L136.422 388.254Z" fill="url(#paint14_linear_14_4391)"/>
<path d="M105.448 388.209L133.054 388.249L133.212 377.11L105.58 377.074L105.448 388.209Z" fill="url(#paint15_linear_14_4391)"/>
<path d="M167.083 408.309L194.695 408.36L194.912 397.247L167.274 397.202L167.083 408.309Z" fill="url(#paint16_linear_14_4391)"/>
<path d="M136.132 408.254L163.717 408.304L163.904 397.196L136.294 397.151L136.132 408.254Z" fill="url(#paint17_linear_14_4391)"/>
<path d="M105.212 408.198L132.769 408.248L132.928 397.146L105.344 397.102L105.212 408.198Z" fill="url(#paint18_linear_14_4391)"/>
<path d="M166.741 428.25L194.305 428.307L194.521 417.233L166.931 417.18L166.741 428.25Z" fill="url(#paint19_linear_14_4391)"/>
<path d="M135.844 428.183L163.381 428.242L163.568 417.173L136.004 417.12L135.844 428.183Z" fill="url(#paint20_linear_14_4391)"/>
<path d="M104.978 428.118L132.487 428.177L132.644 417.113L105.108 417.06L104.978 428.118Z" fill="url(#paint21_linear_14_4391)"/>
<path d="M166.4 448.121L193.917 448.189L194.133 437.152L166.589 437.089L166.4 448.121Z" fill="url(#paint22_linear_14_4391)"/>
<path d="M135.556 448.046L163.045 448.113L163.232 437.083L135.716 437.02L135.556 448.046Z" fill="url(#paint23_linear_14_4391)"/>
<path d="M104.743 447.97L132.205 448.038L132.361 437.012L104.873 436.949L104.743 447.97Z" fill="url(#paint24_linear_14_4391)"/>
<path d="M166.06 467.924L193.53 468L193.745 457.002L166.249 456.93L166.06 467.924Z" fill="url(#paint25_linear_14_4391)"/>
<path d="M135.269 467.839L162.712 467.915L162.897 456.922L135.428 456.85L135.269 467.839Z" fill="url(#paint26_linear_14_4391)"/>
<path d="M104.509 467.754L131.924 467.83L132.08 456.842L104.639 456.772L104.509 467.754Z" fill="url(#paint27_linear_14_4391)"/>
<path d="M352.023 293.756C352.071 291.701 354.182 290.01 356.769 290.01H454.541C457.162 290.01 459.736 291.789 459.736 293.872V480.004C459.736 481.005 459.009 481.967 458.117 482.673C457.225 483.38 455.901 483.776 454.64 483.773L352.412 483.552C351.14 483.549 349.896 483.141 349.006 482.419C348.116 481.696 347.615 480.699 347.639 479.688L352.022 293.754L352.023 293.756Z" fill="#BDD0FB"/>
<g opacity="0.5">
<path d="M424.026 311.943L451.88 311.914L452.101 300.572H424.221L424.026 311.943Z" fill="white"/>
<path d="M392.807 311.938L420.632 311.909L420.823 300.572H392.971L392.807 311.938Z" fill="white"/>
<path d="M361.617 311.933L389.415 311.903L389.575 300.572H361.751L361.617 311.933Z" fill="white"/>
<path d="M423.678 332.302L451.484 332.315L451.704 321.048L423.872 321.039L423.678 332.302Z" fill="white"/>
<path d="M392.513 332.286L420.29 332.299L420.48 321.039L392.676 321.029L392.513 332.286Z" fill="white"/>
<path d="M361.379 332.27L389.128 332.285L389.287 321.028L361.511 321.019L361.379 332.27Z" fill="white"/>
<path d="M423.332 352.519L451.089 352.543L451.308 341.314L423.525 341.296L423.332 352.519Z" fill="white"/>
<path d="M392.22 352.494L419.949 352.516L420.138 341.294L392.382 341.276L392.22 352.494Z" fill="white"/>
<path d="M361.14 352.467L388.841 352.491L389 341.273L361.272 341.256L361.14 352.467Z" fill="white"/>
<path d="M422.986 372.667L450.694 372.699L450.913 361.51L423.178 361.482L422.986 372.667Z" fill="white"/>
<path d="M391.929 372.631L419.609 372.663L419.798 361.48L392.09 361.452L391.929 372.631Z" fill="white"/>
<path d="M360.902 372.595L388.554 372.627L388.713 361.449L361.034 361.422L360.902 372.595Z" fill="white"/>
<path d="M422.642 392.745L450.302 392.787L450.519 381.635L422.832 381.599L422.642 392.745Z" fill="white"/>
<path d="M391.638 392.7L419.27 392.74L419.458 381.595L391.799 381.559L391.638 392.7Z" fill="white"/>
<path d="M360.665 392.654L388.27 392.695L388.428 381.554L360.797 381.518L360.665 392.654Z" fill="white"/>
<path d="M422.299 412.755L449.911 412.804L450.128 401.691L422.489 401.647L422.299 412.755Z" fill="white"/>
<path d="M391.349 412.699L418.933 412.748L419.121 401.642L391.509 401.597L391.349 412.699Z" fill="white"/>
<path d="M360.429 412.643L387.986 412.692L388.143 401.591L360.56 401.546L360.429 412.643Z" fill="white"/>
<path d="M421.956 432.694L449.521 432.753L449.738 421.679L422.146 421.626L421.956 432.694Z" fill="white"/>
<path d="M391.059 432.629L418.596 432.688L418.783 421.619L391.219 421.564L391.059 432.629Z" fill="white"/>
<path d="M360.193 432.564L387.703 432.621L387.861 421.558L360.323 421.504L360.193 432.564Z" fill="white"/>
<path d="M421.615 452.566L449.132 452.633L449.348 441.598L421.804 441.535L421.615 452.566Z" fill="white"/>
<path d="M390.772 452.49L418.262 452.558L418.447 441.527L390.931 441.464L390.772 452.49Z" fill="white"/>
<path d="M359.959 452.416L387.42 452.482L387.578 441.458L360.089 441.395L359.959 452.416Z" fill="white"/>
<path d="M421.276 472.369L448.746 472.445L448.96 461.447L421.464 461.376L421.276 472.369Z" fill="white"/>
<path d="M390.486 472.283L417.928 472.359L418.114 461.367L390.645 461.296L390.486 472.283Z" fill="white"/>
<path d="M359.724 472.2L387.14 472.275L387.296 461.287L359.855 461.216L359.724 472.2Z" fill="white"/>
</g>
<path d="M254.825 344.389C246.846 319.344 231.406 299.384 213.119 287.651C196.772 277.161 184.992 260.826 180.632 241.957C180.173 239.974 179.629 237.984 178.996 235.996C169.399 205.876 143.076 187.361 120.204 194.644C97.3309 201.928 86.5681 232.249 96.1651 262.37C98.1272 268.529 100.79 274.201 103.979 279.267C114.156 295.432 118.139 314.82 114.395 333.573C111.048 350.331 111.957 369.2 117.939 387.977C126.861 415.981 145.109 437.629 166.24 448.527C174.232 452.649 181.439 458.192 187.407 464.891C197.324 476.022 211.301 481.253 224.142 477.165C237.995 472.754 246.649 458.731 247.272 442.37C247.624 433.11 249.803 424.035 253.352 415.456C261.731 395.202 262.894 369.715 254.826 344.392L254.825 344.389Z" fill="#91B3FA"/>
<path opacity="0.57" d="M138.423 224.136C147.753 243.091 156.464 262.331 164.973 281.663C167.102 286.495 169.153 291.361 171.219 296.22L174.318 303.508L177.355 310.823C179.361 315.708 181.435 320.564 183.385 325.472L189.238 340.193C193.014 350.058 196.875 359.889 200.465 369.823C202.267 374.787 204.168 379.715 205.869 384.717L211.041 399.694C217.735 419.731 223.926 439.947 229.076 460.437L228.192 460.67L223.751 445.486L222.65 441.688L221.453 437.919L219.046 430.385L216.653 422.849C215.859 420.335 214.973 417.851 214.137 415.351C212.432 410.361 210.769 405.36 209.033 400.382C201.956 380.514 194.615 360.742 186.865 341.124C182.915 331.345 179.049 321.532 175.03 311.779L172.036 304.458L168.98 297.16C166.946 292.293 164.912 287.427 162.828 282.582C158.744 272.854 154.59 263.157 150.357 253.493C146.174 243.807 141.899 234.159 137.594 224.528L138.421 224.137L138.423 224.136Z" fill="white"/>
<path d="M321.578 294.608C317.849 267.255 305.522 243.813 288.785 228.361C273.824 214.55 264.619 195.518 263.51 175.209C263.394 173.074 263.189 170.918 262.893 168.746C258.41 135.85 234.611 111.932 209.74 115.32C184.87 118.708 168.343 148.123 172.828 181.018C173.744 187.745 175.47 194.095 177.847 199.911C185.432 218.477 186.059 239.252 178.838 257.971C172.385 274.699 169.936 294.381 172.732 314.888C176.901 345.472 191.82 371.171 211.635 386.272C219.129 391.984 225.56 399.023 230.507 407.033C238.729 420.343 252.19 428.288 266.153 426.386C281.216 424.334 292.647 411.396 296.224 394.586C298.248 385.072 302.12 376.079 307.315 367.848C319.581 348.416 325.349 322.263 321.579 294.608H321.578Z" fill="#005CA2"/>
<path opacity="0.57" d="M223.221 149.127C229.434 170.424 234.957 191.906 240.256 213.443C241.584 218.827 242.824 224.232 244.082 229.632L245.968 237.732L247.786 245.849C248.977 251.265 250.243 256.664 251.371 262.094L254.761 278.381C256.882 289.269 259.094 300.137 261.014 311.063C261.981 316.525 263.053 321.967 263.91 327.448L266.553 343.877C269.856 365.816 272.608 387.849 274.24 409.977L273.286 410.057L271.435 393.547L270.982 389.42L270.424 385.304L269.294 377.075L268.181 368.845C267.815 366.103 267.346 363.372 266.933 360.634C266.073 355.165 265.255 349.688 264.359 344.225C260.632 322.393 256.615 300.609 252.149 278.912C249.833 268.081 247.61 257.23 245.218 246.414L243.447 238.298L241.608 230.196C240.385 224.794 239.161 219.391 237.884 214.002C235.42 203.201 232.88 192.416 230.251 181.653C227.68 170.876 225.005 160.121 222.298 149.379L223.219 149.125L223.221 149.127Z" fill="white"/>
<path d="M435.891 183.176H218.787C217.09 183.176 215.715 184.551 215.715 186.247V479.53C215.715 481.226 217.09 482.601 218.787 482.601H435.891C437.588 482.601 438.963 481.226 438.963 479.53V186.247C438.963 184.551 437.588 183.176 435.891 183.176Z" fill="url(#paint28_linear_14_4391)"/>
<path d="M400.958 228.16H253.244C247.645 228.16 243.105 232.697 243.105 238.295V433.024C243.105 438.621 247.645 443.159 253.244 443.159H400.958C406.557 443.159 411.096 438.621 411.096 433.024V238.295C411.096 232.697 406.557 228.16 400.958 228.16Z" fill="#7D97F4"/>
<path d="M395.369 245.846H258.966C257.287 245.846 255.925 247.207 255.925 248.886V425.162C255.925 426.841 257.287 428.202 258.966 428.202H395.369C397.049 428.202 398.41 426.841 398.41 425.162V248.886C398.41 247.207 397.049 245.846 395.369 245.846Z" fill="url(#paint29_linear_14_4391)"/>
<path d="M331.654 210.855C334.262 208.247 334.262 204.02 331.654 201.413C329.046 198.806 324.818 198.806 322.209 201.413C319.601 204.02 319.601 208.247 322.209 210.855C324.818 213.462 329.046 213.462 331.654 210.855Z" fill="url(#paint30_linear_14_4391)"/>
<path d="M370.079 313.915L284.157 315.344C277.617 315.453 272.297 320.536 272.297 326.698V380.791C272.297 386.953 277.617 391.735 284.157 391.472L370.079 388.022C376.251 387.774 381.237 382.747 381.237 376.792V324.513C381.237 318.558 376.251 313.814 370.079 313.917V313.915Z" fill="url(#paint31_linear_14_4391)"/>
<path d="M374.428 304.132C371.825 304.171 369.713 302.163 369.713 299.648V287.809C369.713 275.932 359.663 266.298 347.223 266.334L319.232 266.415C306.471 266.453 296.014 276.371 296.014 288.525V300.64C296.014 303.215 293.798 305.334 291.061 305.375C288.319 305.416 286.093 303.356 286.093 300.773V288.621C286.093 271.273 301.044 257.159 319.232 257.159H347.223C364.896 257.159 379.129 270.868 379.129 287.717V299.52C379.129 302.028 377.026 304.092 374.428 304.131V304.132Z" fill="url(#paint32_linear_14_4391)"/>
<path d="M341.019 343.895C341.019 337.884 335.769 333.163 329.388 333.597C323.744 333.981 319.077 338.498 318.773 343.892C318.537 348.077 320.838 351.696 324.335 353.526C325.824 354.305 326.563 355.945 326.273 357.567L323.82 371.33C323.508 373.082 324.917 374.622 326.771 374.555L333.076 374.33C334.921 374.263 336.32 372.63 336.01 370.906L333.559 357.27C333.267 355.643 334.112 354.029 335.604 353.136C338.847 351.198 341.019 347.759 341.019 343.892V343.895Z" fill="#EA5504"/>
<path d="M168.451 483.125C168.452 483.007 168.444 482.887 168.415 482.767C166.632 475.705 157.789 471.308 157.789 471.308L154.285 471.583C152.27 477.807 152.53 481.623 152.853 483.325C152.862 483.373 152.877 483.418 152.889 483.463C155.779 483.722 161.729 483.89 168.451 483.126V483.125Z" fill="url(#paint33_linear_14_4391)"/>
<path d="M152.888 483.462C153.044 484.03 153.463 484.471 154.001 484.585C158.113 485.449 164.649 484.754 167.393 484.395C167.998 484.317 168.441 483.757 168.45 483.125C161.729 483.89 155.779 483.721 152.888 483.462Z" fill="#91B3FA"/>
<path d="M152.875 466.364L154.36 473.507C154.469 474.029 154.871 474.421 155.357 474.468C155.954 474.524 156.803 474.557 157.657 474.432C158.423 474.32 158.956 473.541 158.82 472.707L157.789 466.365H152.875V466.364Z" fill="url(#paint34_linear_14_4391)"/>
<path d="M183.627 483.373C179.756 483.265 177.755 482.809 176.72 482.386C176.718 482.77 176.72 483.162 176.732 483.567C176.746 484.001 177.067 484.346 177.462 484.345L198.711 484.207C199.389 484.203 199.785 483.417 199.492 482.795C196.705 483.026 189.609 483.541 183.627 483.373Z" fill="#91B3FA"/>
<path d="M199.492 482.794C199.466 482.739 199.444 482.685 199.408 482.634C197.531 480.012 192.752 474.792 183.307 472.528L178.776 472.385C178.776 472.385 176.758 475.891 176.72 482.385C177.755 482.807 179.757 483.263 183.627 483.371C189.609 483.539 196.705 483.023 199.492 482.794Z" fill="url(#paint35_linear_14_4391)"/>
<path d="M177.734 465.733C177.806 466.066 178.748 471.149 179.113 473.12C179.2 473.588 179.565 473.932 179.999 473.956C180.775 474 182.026 474.004 183.101 473.712C183.682 473.555 184.072 472.963 184.031 472.307L183.524 464.267L177.734 465.733Z" fill="url(#paint36_linear_14_4391)"/>
<path d="M174.3 371.894C174.3 371.894 180.534 414.71 185.031 465.659C185.115 466.609 184.359 467.434 183.427 467.63C182.053 467.92 180.033 468.264 178.361 468.216C177.468 468.19 176.721 467.529 176.572 466.649C175.039 457.666 164.106 409.454 161.235 398.842C161.235 398.842 157.94 443.916 158.993 467.3C159.02 467.881 158.593 468.385 158.016 468.452C157.138 468.553 155.735 468.63 153.949 468.441C153.271 468.369 152.724 467.857 152.627 467.182C151.536 459.579 145.253 414.326 145.52 381.725C145.535 379.886 147.678 364.783 147.678 364.783L174.303 371.894H174.3Z" fill="url(#paint37_linear_14_4391)"/>
<path d="M176.715 299.893L177.55 322.297C179.92 323.113 182.177 323.746 184.326 324.219C185.67 319.894 188.63 314.584 191.052 310.636C182.147 307.489 176.715 299.891 176.715 299.891V299.893Z" fill="url(#paint38_linear_14_4391)"/>
<path d="M146.739 374.362C146.099 374.134 145.652 373.554 145.581 372.878C144.753 364.839 140.739 314.996 166.076 294.492C166.076 294.492 167.528 290.692 179.472 300.034C191.415 309.376 185.02 319.167 182.161 332.672C178.701 349.014 172.63 362.372 175.315 372.43C175.501 373.123 175.135 373.853 174.462 374.101C165.185 377.518 155.943 377.632 146.738 374.362H146.739Z" fill="url(#paint39_linear_14_4391)"/>
<path d="M175.959 279.558C175.951 280.267 165.833 294.632 165.833 294.632C165.833 294.632 167.649 298.207 176.319 301.11L183.802 285.729L175.959 279.558Z" fill="url(#paint40_linear_14_4391)"/>
<path d="M170.947 328.712C170.884 328.712 170.819 328.693 170.763 328.656C162.681 323.197 158.878 314.385 158.841 314.297C158.77 314.129 158.849 313.937 159.016 313.867C159.184 313.796 159.376 313.873 159.447 314.04C159.483 314.127 163.215 322.763 171.131 328.11C171.282 328.212 171.32 328.416 171.219 328.566C171.156 328.66 171.052 328.71 170.947 328.71V328.712Z" fill="url(#paint41_linear_14_4391)"/>
<path d="M182.985 316.5C182.877 316.5 182.772 316.447 182.709 316.349C182.685 316.312 180.216 312.469 175.513 304.051C174.067 301.463 172.166 299.823 169.864 299.179C166.052 298.114 162.377 300.158 162.341 300.178C162.182 300.264 161.984 300.212 161.893 300.055C161.804 299.898 161.858 299.696 162.016 299.607C162.174 299.518 165.953 297.403 170.035 298.546C172.514 299.238 174.551 300.982 176.086 303.73C180.778 312.127 183.237 315.956 183.261 315.993C183.36 316.145 183.316 316.349 183.162 316.447C183.108 316.483 183.045 316.499 182.985 316.499V316.5Z" fill="url(#paint42_linear_14_4391)"/>
<path d="M183.924 271.326C183.924 271.326 187.524 279.593 187.766 283.932C188.007 288.27 188.942 291.085 183.924 291.96C178.906 292.833 174.678 290.335 172.388 286.013C172.388 286.013 168.8 279.353 169.604 276.626C170.409 273.899 183.924 271.327 183.924 271.327V271.326Z" fill="url(#paint43_linear_14_4391)"/>
<path d="M174.103 282.905L174.389 282.78C174.753 282.62 174.908 282.186 174.725 281.834C174.017 280.467 172.637 277.335 174.419 276.605C176.716 275.663 185.814 273.808 187.778 270.58C189.664 267.479 187.993 263.474 185.481 262.336C185.313 262.26 185.114 262.32 185.029 262.484L184.819 262.88C184.677 263.15 184.275 263.109 184.19 262.816C184.108 262.533 183.732 262.478 183.576 262.728C182.973 263.693 181.343 265.259 176.987 266.063C170.795 267.205 166.703 269.709 166.6 273.987C166.594 274.259 166.304 274.41 166.072 274.268C165.615 273.99 164.884 273.859 163.906 274.68C162.205 276.11 162.902 279.817 166.628 282.868C166.806 283.013 166.804 283.289 166.612 283.413C165.936 283.853 164.929 284.898 167.539 286.293C170.239 287.736 172.255 287.617 173.031 287.489C173.224 287.457 173.348 287.27 173.306 287.08L172.477 283.321C172.431 283.108 172.592 282.906 172.811 282.906H174.102L174.103 282.905Z" fill="url(#paint44_linear_14_4391)"/>
<path d="M174.258 283.698C174.258 283.698 172.884 278.418 170.517 279.898C168.148 281.378 171.745 285.814 173.65 286.012L174.258 283.697V283.698Z" fill="url(#paint45_linear_14_4391)"/>
<path d="M220.872 298.207C220.872 298.207 219.067 295.01 219.182 293.455C219.296 291.901 218.328 289.62 219.359 289.788C220.39 289.957 220.602 289.819 220.882 291.683C221.162 293.547 224.414 301.69 220.872 298.206V298.207Z" fill="url(#paint46_linear_14_4391)"/>
<path d="M221.212 293.123L221.17 299.511C208.956 312.695 199.07 313.471 191.053 310.637C188.63 314.585 185.67 319.894 184.327 324.221C216.945 331.409 224.625 301.433 224.625 301.433C229.043 299.603 229.934 298.532 229.743 297.334L221.212 293.121V293.123Z" fill="url(#paint47_linear_14_4391)"/>
<path d="M230.605 286.785C229.562 286.362 227.522 282.474 227.131 283.753C226.741 285.032 227.297 286.785 227.131 287.329C226.966 287.873 224.424 294.131 224.931 295.52C225.297 296.523 227.317 296.375 227.625 298.016C227.728 298.56 228.163 298.951 228.668 298.952C229.174 298.952 229.608 298.563 229.711 298.018C229.752 297.799 231.647 287.208 230.605 286.785Z" fill="url(#paint48_linear_14_4391)"/>
<path d="M197.312 273.479C189.076 289.764 195.605 309.64 211.895 317.874C225.135 324.566 240.749 321.507 250.554 311.383L307.153 339.99C308.093 340.464 309.211 340.426 310.115 339.887L315.651 336.591C315.746 336.533 315.836 336.472 315.923 336.407C315.947 336.388 315.971 336.369 315.995 336.349C316.059 336.297 316.122 336.244 316.18 336.189C316.2 336.171 316.22 336.152 316.24 336.132C316.314 336.059 316.384 335.984 316.45 335.905C316.45 335.905 316.452 335.903 316.452 335.901C317.147 335.056 317.359 333.876 316.934 332.809L312.436 321.538C312.159 320.842 311.636 320.271 310.966 319.932L305.298 317.067L303.797 320.034L298.927 317.572L300.428 314.605L295.871 312.303L294.491 315.031L288.572 312.039L289.953 309.31L287.748 308.196L287.037 309.6L282.075 307.092L282.786 305.688L278.927 303.737L277.427 306.704L274.67 305.31L276.17 302.343L273.781 301.135L272.281 304.101L267.503 301.686L269.004 298.719L262.288 295.324L259.412 293.871C261.756 279.975 254.964 265.592 241.724 258.899C225.434 250.666 205.551 257.193 197.315 273.478L197.312 273.479ZM216.596 275.728C219.894 277.395 221.216 281.421 219.549 284.718C217.881 288.016 213.855 289.337 210.556 287.67C207.257 286.004 205.935 281.978 207.603 278.681C209.27 275.383 213.297 274.062 216.596 275.728Z" fill="url(#paint49_linear_14_4391)"/>
<path d="M243.19 283.458L270.02 297.019L268.519 299.986L273.297 302.401L274.798 299.434L277.187 300.642L275.686 303.609L278.443 305.002L279.944 302.035L283.802 303.986L283.091 305.39L288.053 307.898L288.764 306.494L290.969 307.609L289.589 310.337L295.507 313.329L296.887 310.601L301.444 312.904L299.943 315.871L304.813 318.332L306.314 315.365L311.983 318.231C312.652 318.57 313.174 319.14 313.452 319.836L317.95 331.108C318.51 332.512 317.966 334.116 316.667 334.891L311.132 338.187C310.226 338.726 309.108 338.764 308.169 338.289L239.844 303.755L243.187 283.458H243.19Z" fill="url(#paint50_linear_14_4391)"/>
<path d="M212.914 316.173C229.204 324.407 249.086 317.88 257.323 301.595C265.559 285.31 259.03 265.434 242.74 257.201C226.45 248.967 206.567 255.494 198.331 271.779C190.094 288.064 196.624 307.94 212.914 316.173ZM211.576 285.97C208.277 284.304 206.956 280.278 208.623 276.981C210.29 273.683 214.317 272.362 217.616 274.028C220.914 275.695 222.236 279.721 220.569 283.018C218.902 286.316 214.875 287.637 211.576 285.97Z" fill="url(#paint51_linear_14_4391)"/>
<path d="M251.571 309.682L308.17 338.289C309.111 338.764 310.229 338.725 311.133 338.187L316.668 334.891C317.503 334.393 318.021 333.553 318.14 332.644C312.982 327.057 263.947 305.652 262.113 301.246C261.46 299.679 261.348 297.306 263.304 293.625L260.428 292.172C262.772 278.277 255.98 263.893 242.74 257.201C226.45 248.967 206.567 255.494 198.331 271.779C190.094 288.064 196.624 307.94 212.914 316.173C226.154 322.866 241.768 319.806 251.573 309.682H251.571ZM217.614 274.028C220.913 275.695 222.235 279.721 220.568 283.018C218.9 286.316 214.873 287.637 211.575 285.97C208.276 284.304 206.954 280.278 208.622 276.981C210.289 273.683 214.316 272.362 217.614 274.028Z" fill="#EA5504"/>
<path d="M215.841 310.386C228.934 317.004 244.914 311.759 251.534 298.67C258.154 285.581 252.907 269.605 239.814 262.988C226.721 256.37 210.74 261.616 204.12 274.704C197.5 287.793 202.747 303.769 215.841 310.386ZM211.575 285.97C208.276 284.304 206.954 280.278 208.622 276.981C210.289 273.683 214.316 272.362 217.615 274.028C220.913 275.695 222.235 279.721 220.568 283.018C218.9 286.316 214.873 287.637 211.575 285.97Z" fill="url(#paint52_linear_14_4391)"/>
<path d="M170.947 328.712C170.947 328.712 202.073 339.128 219.482 325.877C220.562 325.055 221.924 324.697 223.263 324.914L229.914 325.997C232.706 326.451 235.365 324.643 235.967 321.88C236.31 320.304 236.475 318.58 236.126 317.1L223.57 316.343L223.929 314.715C223.929 314.715 218.379 316.072 218.268 320.412C218.268 320.412 205.25 328.937 181.507 315.705C181.507 315.705 172.261 322.939 170.947 328.712Z" fill="url(#paint53_linear_14_4391)"/>
<g opacity="0.3">
<path d="M411.351 172.717C410.627 172.687 410.063 172.075 410.093 171.351C410.151 169.943 410.148 168.512 410.085 167.098C410.053 166.382 410.601 165.775 411.314 165.729C411.322 165.729 411.331 165.729 411.339 165.728C412.063 165.696 412.677 166.257 412.709 166.982C412.776 168.471 412.778 169.976 412.717 171.459C412.689 172.137 412.151 172.673 411.49 172.715C411.444 172.718 411.398 172.719 411.351 172.717ZM409.306 160.233C409.051 158.841 408.734 157.446 408.363 156.088C408.172 155.389 408.585 154.666 409.285 154.475C409.988 154.286 410.707 154.698 410.897 155.397C411.287 156.826 411.622 158.294 411.89 159.76C412.021 160.473 411.548 161.157 410.835 161.288C410.783 161.297 410.731 161.304 410.68 161.307C410.025 161.348 409.428 160.895 409.306 160.233ZM406.088 149.567C405.53 148.27 404.91 146.982 404.243 145.736C403.9 145.098 404.142 144.302 404.78 143.959C405.419 143.617 406.216 143.858 406.558 144.496C407.26 145.807 407.914 147.164 408.501 148.53C408.787 149.196 408.478 149.967 407.812 150.254C407.67 150.315 407.523 150.349 407.377 150.358C406.839 150.393 406.313 150.09 406.088 149.566V149.567ZM400.564 139.889C399.731 138.748 398.837 137.63 397.91 136.565C397.434 136.018 397.491 135.189 398.038 134.713C398.585 134.237 399.414 134.294 399.891 134.841C400.867 135.962 401.807 137.138 402.685 138.34C403.113 138.925 402.985 139.747 402.4 140.175C402.19 140.328 401.95 140.409 401.709 140.425C401.275 140.453 400.839 140.265 400.564 139.891V139.889ZM393.021 131.682C391.957 130.757 390.838 129.863 389.696 129.029C389.11 128.601 388.984 127.779 389.411 127.194C389.839 126.608 390.66 126.48 391.246 126.91C392.448 127.789 393.626 128.727 394.745 129.702C395.292 130.178 395.35 131.007 394.874 131.554C394.634 131.83 394.304 131.981 393.967 132.002C393.635 132.023 393.293 131.918 393.023 131.682H393.021ZM383.85 125.348C382.605 124.68 381.317 124.058 380.02 123.498C379.355 123.21 379.048 122.438 379.336 121.772C379.624 121.107 380.396 120.8 381.062 121.088C382.427 121.678 383.783 122.334 385.093 123.036C385.732 123.379 385.972 124.175 385.628 124.814C385.405 125.228 384.99 125.475 384.553 125.503C384.317 125.518 384.074 125.47 383.85 125.35V125.348ZM335.087 124.738C334.746 124.098 334.988 123.303 335.627 122.962C336.938 122.263 338.298 121.612 339.668 121.027C340.334 120.741 341.107 121.052 341.391 121.719C341.676 122.386 341.366 123.156 340.699 123.442C339.398 123.996 338.107 124.615 336.862 125.279C336.692 125.37 336.51 125.419 336.329 125.431C335.831 125.463 335.337 125.207 335.086 124.738H335.087ZM373.509 121.207C372.148 120.832 370.754 120.512 369.366 120.256C368.652 120.124 368.181 119.439 368.313 118.727C368.445 118.013 369.129 117.547 369.843 117.675C371.305 117.945 372.772 118.281 374.206 118.676C374.905 118.868 375.316 119.591 375.124 120.291C374.972 120.845 374.485 121.219 373.941 121.252C373.799 121.262 373.654 121.247 373.509 121.207ZM345.618 120.253C345.428 119.553 345.843 118.833 346.544 118.644C347.977 118.256 349.447 117.925 350.912 117.66C351.625 117.528 352.308 118.004 352.438 118.717C352.567 119.431 352.094 120.113 351.38 120.243C349.989 120.495 348.591 120.809 347.229 121.178C347.142 121.202 347.054 121.215 346.969 121.22C346.358 121.259 345.785 120.865 345.619 120.252L345.618 120.253ZM362.503 119.48C361.093 119.42 359.663 119.419 358.249 119.479C357.525 119.509 356.913 118.948 356.882 118.223C356.851 117.508 357.4 116.903 358.111 116.857C358.12 116.857 358.129 116.857 358.139 116.857C359.626 116.793 361.132 116.795 362.616 116.857C363.341 116.889 363.903 117.501 363.871 118.225C363.842 118.901 363.306 119.437 362.644 119.479C362.598 119.481 362.551 119.483 362.503 119.48Z" fill="#91B3FA"/>
<path d="M328.62 130.486C328.878 130.47 329.134 130.378 329.353 130.205C329.882 129.783 330.43 129.367 330.981 128.965C331.567 128.538 331.696 127.717 331.268 127.13C330.841 126.544 330.018 126.415 329.433 126.843C328.854 127.266 328.278 127.703 327.72 128.146C327.152 128.597 327.057 129.423 327.508 129.99C327.785 130.341 328.207 130.51 328.622 130.485L328.62 130.486Z" fill="#91B3FA"/>
</g>
<g opacity="0.3">
<path d="M309.476 165.637C310.108 165.597 310.636 165.104 310.699 164.452C310.763 163.779 310.843 163.095 310.936 162.42C311.035 161.701 310.532 161.038 309.815 160.94C309.093 160.841 308.433 161.344 308.334 162.061C308.237 162.772 308.153 163.492 308.085 164.201C308.015 164.923 308.545 165.564 309.266 165.633C309.337 165.64 309.408 165.641 309.476 165.636V165.637Z" fill="#91B3FA"/>
<path d="M360.99 221.682C360.264 221.693 359.668 221.113 359.658 220.387C359.647 219.662 360.226 219.067 360.951 219.057C362.332 219.037 363.734 218.958 365.132 218.822C365.849 218.75 366.496 219.281 366.566 220.002C366.636 220.723 366.108 221.366 365.385 221.435C364.78 221.494 364.174 221.543 363.571 221.581C362.711 221.635 361.841 221.669 360.987 221.682H360.99ZM370.867 219.286C370.7 218.581 371.137 217.874 371.842 217.706C373.197 217.385 374.553 217.003 375.872 216.571C376.56 216.343 377.303 216.72 377.528 217.41C377.754 218.098 377.379 218.841 376.689 219.066C375.301 219.521 373.874 219.923 372.448 220.261C372.374 220.278 372.3 220.289 372.226 220.294C371.599 220.334 371.017 219.918 370.867 219.286ZM353.845 221.294C352.395 221.115 350.932 220.873 349.498 220.57C348.788 220.421 348.333 219.725 348.483 219.015C348.632 218.306 349.328 217.853 350.038 218.001C351.4 218.287 352.788 218.518 354.165 218.687C354.885 218.777 355.396 219.431 355.308 220.151C355.229 220.787 354.708 221.261 354.089 221.301C354.009 221.306 353.926 221.303 353.843 221.294H353.845ZM381.567 215.772C381.249 215.12 381.519 214.335 382.172 214.016C383.421 213.407 384.659 212.736 385.852 212.024C386.475 211.652 387.28 211.855 387.652 212.478C388.024 213.1 387.822 213.906 387.199 214.278C385.942 215.028 384.639 215.734 383.324 216.376C383.165 216.454 382.999 216.496 382.832 216.507C382.317 216.54 381.809 216.264 381.567 215.772ZM342.618 218.622C341.244 218.129 339.871 217.57 338.539 216.96C337.88 216.659 337.589 215.88 337.891 215.222C338.192 214.562 338.971 214.272 339.631 214.574C340.897 215.152 342.2 215.683 343.506 216.151C344.189 216.396 344.544 217.148 344.298 217.83C344.116 218.338 343.651 218.665 343.145 218.697C342.971 218.707 342.792 218.685 342.618 218.622ZM332.25 213.554C331.013 212.771 329.795 211.926 328.631 211.044C328.053 210.605 327.939 209.783 328.378 209.205C328.816 208.627 329.639 208.513 330.217 208.952C331.324 209.791 332.482 210.593 333.656 211.337C334.268 211.726 334.451 212.536 334.062 213.15C333.828 213.519 333.441 213.731 333.035 213.756C332.769 213.774 332.494 213.71 332.25 213.555V213.554ZM323.233 206.347C322.197 205.312 321.191 204.222 320.246 203.108C319.777 202.554 319.846 201.726 320.4 201.257C320.953 200.788 321.782 200.857 322.251 201.41C323.149 202.469 324.104 203.504 325.088 204.488C325.602 205 325.603 205.832 325.09 206.344C324.855 206.58 324.552 206.708 324.244 206.727C323.881 206.749 323.51 206.623 323.233 206.345V206.347ZM316.004 197.345C315.218 196.109 314.476 194.825 313.799 193.528C313.463 192.886 313.712 192.092 314.355 191.756C314.996 191.422 315.791 191.67 316.126 192.312C316.769 193.543 317.473 194.762 318.22 195.935C318.61 196.547 318.428 197.358 317.816 197.747C317.623 197.87 317.409 197.937 317.196 197.95C316.733 197.979 316.269 197.762 316.004 197.343V197.345ZM310.927 186.969C310.435 185.595 309.995 184.18 309.618 182.765C309.432 182.064 309.849 181.345 310.551 181.16C311.25 180.974 311.971 181.39 312.157 182.092C312.513 183.436 312.932 184.78 313.4 186.085C313.644 186.768 313.289 187.519 312.606 187.764C312.488 187.807 312.366 187.831 312.246 187.839C311.677 187.875 311.128 187.533 310.927 186.971V186.969ZM308.255 175.745C308.122 174.677 308.019 173.591 307.951 172.519C307.927 172.131 307.906 171.743 307.89 171.356C307.859 170.632 308.413 170.007 309.148 169.991C309.872 169.96 310.484 170.523 310.515 171.248C310.531 171.616 310.549 171.985 310.572 172.354C310.637 173.374 310.734 174.405 310.86 175.421C310.951 176.139 310.44 176.797 309.72 176.886C309.693 176.889 309.665 176.893 309.638 176.894C308.952 176.938 308.341 176.439 308.254 175.746L308.255 175.745Z" fill="#91B3FA"/>
<path d="M392.366 210.46C392.626 210.444 392.885 210.349 393.104 210.175C393.659 209.729 394.214 209.265 394.755 208.793C395.302 208.317 395.358 207.488 394.882 206.941C394.404 206.395 393.576 206.337 393.029 206.815C392.514 207.263 391.987 207.704 391.46 208.127C390.895 208.58 390.804 209.407 391.258 209.972C391.536 210.319 391.954 210.487 392.366 210.461V210.46Z" fill="#91B3FA"/>
</g>
<path d="M394.847 188.091C394.999 187.877 395.001 187.592 394.847 187.379L390.52 181.29C391.85 178.066 392.675 174.606 392.911 171.026L399.474 167.471C399.705 167.346 399.831 167.09 399.788 166.831L398.322 157.994C398.279 157.736 398.077 157.533 397.819 157.49L390.459 156.245C389.08 152.931 387.182 149.923 384.882 147.3L387.011 140.143C387.086 139.892 386.992 139.621 386.78 139.469L379.493 134.257C379.28 134.105 378.995 134.104 378.781 134.257L372.691 138.583C369.466 137.253 366.004 136.429 362.423 136.193L358.867 129.631C358.742 129.401 358.485 129.275 358.227 129.318L349.387 130.783C349.129 130.826 348.926 131.029 348.883 131.286L347.637 138.645C344.323 140.024 341.314 141.921 338.69 144.22L331.53 142.092C331.279 142.017 331.008 142.111 330.856 142.323L325.642 149.607C325.49 149.821 325.489 150.106 325.642 150.319L329.969 156.408C328.639 159.632 327.815 163.091 327.579 166.672L321.015 170.227C320.784 170.351 320.659 170.608 320.702 170.867L322.168 179.704C322.21 179.962 322.413 180.165 322.67 180.208L330.031 181.453C331.41 184.767 333.308 187.775 335.607 190.398L333.479 197.555C333.404 197.806 333.497 198.077 333.709 198.229L340.996 203.441C341.209 203.593 341.495 203.594 341.708 203.441L347.799 199.115C351.024 200.445 354.484 201.269 358.067 201.505L361.623 208.067C361.747 208.296 362.004 208.423 362.263 208.38L371.102 206.915C371.361 206.872 371.564 206.669 371.606 206.412L372.852 199.054C376.167 197.675 379.176 195.778 381.8 193.479L388.96 195.607C389.211 195.682 389.481 195.589 389.633 195.377L394.847 188.092V188.091Z" fill="#91B3FA"/>
<path d="M359.498 177.819C354.548 177.407 350.857 173.049 351.268 168.1C351.467 165.703 352.589 163.528 354.425 161.973C356.261 160.42 358.592 159.673 360.991 159.873C365.94 160.285 369.631 164.644 369.22 169.592C368.846 174.094 365.203 177.554 360.821 177.833C360.386 177.861 359.945 177.857 359.498 177.819ZM355.782 163.577C354.373 164.769 353.514 166.436 353.361 168.275C353.046 172.068 355.877 175.411 359.671 175.726C363.468 176.043 366.81 173.211 367.126 169.418C367.441 165.624 364.611 162.281 360.816 161.967C360.472 161.939 360.13 161.935 359.791 161.956C358.322 162.049 356.926 162.608 355.782 163.576V163.577Z" fill="#BDD0FB"/>
<path d="M361.46 190.824C362.212 190.776 362.967 190.691 363.721 190.566C363.958 190.527 364.195 190.483 364.431 190.436C365.594 190.204 366.738 189.88 367.843 189.469C367.857 189.464 367.873 189.459 367.888 189.452C367.931 189.436 367.973 189.42 368.016 189.403C368.099 189.371 368.181 189.339 368.264 189.307C368.481 189.221 368.61 189.007 368.595 188.785C368.591 188.732 368.58 188.677 368.559 188.625C368.452 188.356 368.147 188.224 367.877 188.331C366.489 188.88 365.032 189.283 363.548 189.528C356.173 190.752 349.043 187.973 344.384 182.788C341.793 179.904 339.965 176.274 339.285 172.174C339.165 171.455 339.084 170.735 339.038 170.018C338.733 165.188 340.085 160.441 342.94 156.453C346.218 151.871 351.085 148.84 356.645 147.919C368.125 146.016 379.006 153.802 380.909 165.273C381.026 165.98 381.108 166.691 381.152 167.403C381.346 170.483 380.865 173.573 379.731 176.446C379.702 176.521 379.691 176.597 379.695 176.671C379.707 176.867 379.831 177.05 380.027 177.126C380.298 177.231 380.602 177.101 380.709 176.83C381.9 173.813 382.405 170.57 382.2 167.336C382.153 166.589 382.068 165.844 381.945 165.101C379.947 153.057 368.518 144.886 356.474 146.882C350.639 147.85 345.529 151.031 342.086 155.841C339.089 160.028 337.668 165.012 337.99 170.082C338.038 170.835 338.125 171.591 338.249 172.346C339.217 178.181 342.399 183.288 347.209 186.729C351.399 189.725 356.386 191.146 361.459 190.824H361.46Z" fill="#BDD0FB"/>
<g opacity="0.3">
<path d="M458.406 204.404C458.757 204.381 459.064 204.133 459.145 203.773C459.297 203.101 459.431 202.417 459.541 201.737C459.613 201.296 459.315 200.878 458.872 200.806C458.429 200.732 458.013 201.034 457.941 201.476C457.834 202.124 457.707 202.777 457.563 203.417C457.465 203.853 457.739 204.288 458.176 204.386C458.253 204.404 458.33 204.409 458.406 204.404Z" fill="#91B3FA"/>
<path d="M459.132 198.219C458.684 198.202 458.336 197.826 458.353 197.378C458.396 196.249 458.381 195.105 458.31 193.976C458.296 193.739 458.277 193.5 458.257 193.26C458.22 192.815 458.551 192.422 458.997 192.384C459.42 192.366 459.836 192.678 459.874 193.124C459.895 193.375 459.914 193.624 459.93 193.872C460.004 195.055 460.02 196.255 459.974 197.439C459.958 197.858 459.626 198.191 459.216 198.217C459.19 198.218 459.161 198.218 459.133 198.217L459.132 198.219ZM457.66 189.186C457.378 187.844 457.013 186.508 456.571 185.216C456.426 184.792 456.653 184.332 457.077 184.187C457.498 184.043 457.961 184.268 458.106 184.692C458.569 186.047 458.953 187.448 459.248 188.853C459.34 189.292 459.059 189.722 458.62 189.814C458.581 189.822 458.543 189.827 458.504 189.828C458.108 189.854 457.744 189.584 457.66 189.186ZM454.997 181.409C454.397 180.18 453.714 178.974 452.964 177.828C452.72 177.453 452.826 176.95 453.201 176.706C453.577 176.461 454.078 176.566 454.324 176.942C455.109 178.145 455.826 179.409 456.455 180.698C456.651 181.101 456.484 181.586 456.082 181.782C455.983 181.83 455.88 181.856 455.778 181.862C455.459 181.882 455.145 181.713 454.997 181.409ZM450.506 174.523C449.622 173.477 448.663 172.475 447.66 171.548C447.33 171.244 447.31 170.731 447.614 170.403C447.917 170.075 448.431 170.054 448.76 170.358C449.813 171.33 450.817 172.379 451.745 173.478C452.035 173.819 451.991 174.331 451.649 174.621C451.511 174.737 451.345 174.799 451.178 174.81C450.93 174.826 450.68 174.729 450.506 174.525V174.523ZM444.469 168.943C443.357 168.143 442.186 167.406 440.985 166.748C440.593 166.534 440.449 166.04 440.664 165.648C440.878 165.255 441.372 165.111 441.764 165.327C443.022 166.015 444.25 166.79 445.416 167.627C445.779 167.888 445.863 168.395 445.602 168.759C445.454 168.964 445.228 169.08 444.993 169.095C444.813 169.107 444.627 169.058 444.469 168.944V168.943ZM437.26 164.997C435.987 164.492 434.672 164.063 433.349 163.72C432.915 163.608 432.655 163.165 432.767 162.732C432.879 162.299 433.321 162.039 433.756 162.151C435.143 162.511 436.523 162.961 437.857 163.491C438.273 163.656 438.478 164.127 438.312 164.543C438.192 164.844 437.912 165.033 437.609 165.053C437.493 165.061 437.374 165.044 437.258 164.997H437.26ZM429.307 162.935C427.955 162.757 426.572 162.664 425.199 162.656C424.751 162.653 424.391 162.288 424.394 161.84C424.396 161.392 424.76 161.039 425.21 161.033C426.649 161.043 428.099 161.141 429.518 161.327C429.962 161.385 430.276 161.792 430.217 162.236C430.166 162.627 429.845 162.916 429.465 162.94C429.413 162.943 429.361 162.941 429.307 162.935ZM416.052 163.017C415.945 162.583 416.212 162.144 416.648 162.037C417.852 161.744 419.094 161.511 420.335 161.345C420.523 161.319 420.711 161.296 420.899 161.273C421.34 161.209 421.747 161.54 421.798 161.985C421.85 162.431 421.531 162.832 421.086 162.884C420.909 162.904 420.732 162.927 420.552 162.951C419.365 163.108 418.18 163.331 417.032 163.611C416.985 163.623 416.937 163.629 416.891 163.632C416.505 163.656 416.146 163.403 416.052 163.015V163.017Z" fill="#91B3FA"/>
</g>
<g opacity="0.3">
<path d="M426.697 231.037C425.286 231.108 423.857 231.093 422.451 230.995C422.004 230.963 421.668 230.576 421.699 230.128C421.731 229.681 422.122 229.349 422.566 229.376C423.906 229.471 425.268 229.484 426.616 229.416C427.062 229.393 427.444 229.737 427.467 230.185C427.489 230.629 427.15 231.008 426.708 231.036C426.704 231.036 426.7 231.036 426.697 231.036V231.037ZM429.982 229.907C429.906 229.465 430.202 229.047 430.644 228.971C431.972 228.743 433.299 228.431 434.589 228.045C435.016 227.919 435.471 228.161 435.599 228.591C435.727 229.02 435.483 229.471 435.055 229.6C433.702 230.004 432.311 230.331 430.92 230.569C430.89 230.575 430.861 230.577 430.832 230.58C430.424 230.605 430.053 230.321 429.982 229.908V229.907ZM418.239 230.436C416.85 230.164 415.467 229.805 414.128 229.369C413.703 229.231 413.469 228.772 413.608 228.347C413.747 227.92 414.203 227.689 414.63 227.827C415.907 228.243 417.227 228.585 418.551 228.845C418.991 228.932 419.277 229.357 419.191 229.796C419.119 230.165 418.806 230.427 418.447 230.449C418.379 230.453 418.31 230.449 418.239 230.436ZM437.976 227.717C437.796 227.308 437.983 226.829 438.393 226.649C439.627 226.108 440.84 225.486 441.997 224.8C442.383 224.572 442.88 224.7 443.109 225.082C443.337 225.468 443.21 225.965 442.824 226.193C441.611 226.913 440.338 227.567 439.044 228.133C438.955 228.172 438.862 228.195 438.77 228.2C438.439 228.221 438.116 228.037 437.976 227.716V227.717ZM410.18 227.811C408.901 227.214 407.646 226.533 406.448 225.786C406.068 225.549 405.952 225.049 406.189 224.669C406.426 224.289 406.927 224.172 407.307 224.41C408.45 225.124 409.646 225.773 410.867 226.341C411.272 226.53 411.448 227.013 411.259 227.419C411.13 227.697 410.861 227.867 410.575 227.885C410.444 227.893 410.309 227.871 410.181 227.811H410.18ZM402.985 223.328C401.885 222.441 400.827 221.478 399.844 220.469C399.532 220.149 399.538 219.635 399.859 219.323C400.179 219.011 400.692 219.018 401.006 219.338C401.943 220.301 402.952 221.218 404.003 222.065C404.351 222.346 404.406 222.857 404.126 223.205C403.978 223.389 403.764 223.492 403.545 223.505C403.351 223.517 403.149 223.46 402.985 223.328ZM397.071 217.251C396.213 216.126 395.418 214.938 394.707 213.722C394.481 213.335 394.611 212.839 394.998 212.612C395.385 212.386 395.881 212.518 396.108 212.903C396.785 214.063 397.544 215.196 398.362 216.269C398.633 216.625 398.565 217.134 398.207 217.405C398.075 217.506 397.922 217.559 397.768 217.569C397.507 217.585 397.242 217.475 397.071 217.251Z" fill="#91B3FA"/>
<path d="M445.928 223.954C446.084 223.945 446.239 223.889 446.372 223.786C446.922 223.362 447.461 222.92 447.976 222.47C448.313 222.176 448.348 221.663 448.054 221.326C447.76 220.99 447.248 220.954 446.91 221.247C446.419 221.675 445.906 222.098 445.381 222.502C445.027 222.776 444.963 223.286 445.236 223.64C445.407 223.861 445.67 223.969 445.93 223.953L445.928 223.954Z" fill="#91B3FA"/>
</g>
<path d="M448.081 208.668C448.183 208.525 448.184 208.335 448.081 208.191L445.187 204.117C446.076 201.96 446.629 199.645 446.786 197.249L451.178 194.87C451.333 194.786 451.417 194.614 451.388 194.442L450.407 188.528C450.379 188.355 450.243 188.22 450.071 188.191L445.145 187.357C444.222 185.14 442.953 183.128 441.413 181.372L442.838 176.582C442.887 176.414 442.826 176.233 442.683 176.131L437.807 172.643C437.664 172.542 437.473 172.54 437.329 172.643L433.254 175.537C431.096 174.647 428.78 174.095 426.384 173.938L424.004 169.547C423.92 169.392 423.748 169.308 423.576 169.338L417.66 170.318C417.487 170.347 417.352 170.482 417.323 170.654L416.489 175.578C414.271 176.501 412.258 177.77 410.501 179.309L405.71 177.885C405.542 177.835 405.361 177.897 405.259 178.039L401.77 182.914C401.669 183.057 401.667 183.248 401.77 183.39L404.665 187.464C403.775 189.621 403.223 191.936 403.065 194.332L398.673 196.711C398.518 196.794 398.434 196.966 398.463 197.139L399.444 203.053C399.473 203.226 399.608 203.361 399.78 203.39L404.706 204.224C405.629 206.441 406.899 208.453 408.438 210.209L407.013 214.999C406.964 215.167 407.025 215.348 407.168 215.45L412.045 218.938C412.187 219.039 412.378 219.041 412.522 218.938L416.597 216.044C418.755 216.934 421.071 217.486 423.468 217.643L425.847 222.034C425.931 222.187 426.103 222.273 426.275 222.243L432.191 221.263C432.364 221.234 432.499 221.099 432.529 220.927L433.362 216.003C435.58 215.08 437.593 213.811 439.35 212.272L444.141 213.696C444.309 213.746 444.49 213.684 444.592 213.542L448.081 208.667V208.668Z" fill="#91B3FA"/>
<path d="M424.417 201.904C422.783 201.769 421.301 201.005 420.242 199.754C419.183 198.505 418.675 196.917 418.811 195.283C419.091 191.914 422.058 189.404 425.434 189.679C428.806 189.96 431.32 192.93 431.039 196.299C430.902 197.931 430.139 199.414 428.888 200.473C427.872 201.333 426.631 201.83 425.326 201.913C425.026 201.932 424.721 201.929 424.416 201.904H424.417ZM420.428 195.418C420.328 196.619 420.701 197.787 421.48 198.707C422.259 199.626 423.35 200.189 424.551 200.289C425.752 200.387 426.92 200.014 427.841 199.235C428.762 198.458 429.323 197.366 429.423 196.166C429.63 193.687 427.78 191.503 425.3 191.296C425.076 191.278 424.855 191.276 424.637 191.29C422.442 191.428 420.616 193.163 420.428 195.418Z" fill="#BDD0FB"/>
<path d="M425.785 210.953C426.297 210.921 426.812 210.861 427.328 210.777C428.354 210.608 429.365 210.333 430.332 209.961C430.376 209.944 430.418 209.927 430.462 209.911C430.797 209.779 430.996 209.448 430.975 209.107C430.969 209.024 430.951 208.94 430.919 208.859C430.755 208.443 430.282 208.24 429.866 208.404C428.966 208.76 428.023 209.021 427.064 209.179C427.012 209.188 426.958 209.196 426.906 209.204C424.634 209.559 422.358 209.333 420.248 208.579C419.102 208.169 418.006 207.603 416.984 206.885C416.976 206.88 416.968 206.873 416.959 206.868C416.933 206.849 416.908 206.832 416.883 206.815C413.916 204.692 411.953 201.542 411.356 197.945C411.279 197.479 411.226 197.014 411.196 196.549C410.998 193.422 411.874 190.348 413.723 187.767C415.846 184.801 418.997 182.84 422.595 182.244C426.191 181.649 429.81 182.488 432.777 184.609C435.743 186.732 437.707 189.882 438.303 193.479C438.379 193.936 438.431 194.397 438.46 194.857C438.587 196.851 438.275 198.85 437.541 200.71C437.496 200.825 437.478 200.944 437.486 201.058C437.505 201.362 437.696 201.642 437.999 201.761C438.416 201.924 438.886 201.721 439.051 201.304C439.873 199.222 440.221 196.985 440.081 194.754C440.047 194.239 439.99 193.724 439.905 193.212C439.236 189.187 437.041 185.663 433.721 183.289C430.402 180.916 426.358 179.973 422.331 180.644C418.304 181.31 414.78 183.505 412.405 186.824C410.337 189.712 409.357 193.151 409.578 196.649C409.612 197.167 409.67 197.689 409.757 198.21C411.051 206.003 418.064 211.447 425.787 210.956L425.785 210.953Z" fill="#BDD0FB"/>
</g>
<defs>
<linearGradient id="paint0_linear_14_4391" x1="504.277" y1="591.39" x2="178.077" y2="186.138" gradientUnits="userSpaceOnUse">
<stop stop-color="#DAE3FE"/>
<stop offset="1" stop-color="#E9EFFD"/>
</linearGradient>
<linearGradient id="paint1_linear_14_4391" x1="168.811" y1="301.813" x2="196.886" y2="301.813" gradientUnits="userSpaceOnUse">
<stop stop-color="#DAE3FE"/>
<stop offset="1" stop-color="#E9EFFD"/>
</linearGradient>
<linearGradient id="paint2_linear_14_4391" x1="137.591" y1="301.811" x2="165.607" y2="301.811" gradientUnits="userSpaceOnUse">
<stop stop-color="#DAE3FE"/>
<stop offset="1" stop-color="#E9EFFD"/>
</linearGradient>
<linearGradient id="paint3_linear_14_4391" x1="106.402" y1="301.808" x2="134.359" y2="301.808" gradientUnits="userSpaceOnUse">
<stop stop-color="#DAE3FE"/>
<stop offset="1" stop-color="#E9EFFD"/>
</linearGradient>
<linearGradient id="paint4_linear_14_4391" x1="168.463" y1="322.232" x2="196.489" y2="322.232" gradientUnits="userSpaceOnUse">
<stop stop-color="#DAE3FE"/>
<stop offset="1" stop-color="#E9EFFD"/>
</linearGradient>
<linearGradient id="paint5_linear_14_4391" x1="137.296" y1="322.22" x2="165.264" y2="322.22" gradientUnits="userSpaceOnUse">
<stop stop-color="#DAE3FE"/>
<stop offset="1" stop-color="#E9EFFD"/>
</linearGradient>
<linearGradient id="paint6_linear_14_4391" x1="106.162" y1="322.206" x2="134.071" y2="322.206" gradientUnits="userSpaceOnUse">
<stop stop-color="#DAE3FE"/>
<stop offset="1" stop-color="#E9EFFD"/>
</linearGradient>
<linearGradient id="paint7_linear_14_4391" x1="168.116" y1="342.474" x2="196.092" y2="342.474" gradientUnits="userSpaceOnUse">
<stop stop-color="#DAE3FE"/>
<stop offset="1" stop-color="#E9EFFD"/>
</linearGradient>
<linearGradient id="paint8_linear_14_4391" x1="137.004" y1="342.452" x2="164.922" y2="342.452" gradientUnits="userSpaceOnUse">
<stop stop-color="#DAE3FE"/>
<stop offset="1" stop-color="#E9EFFD"/>
</linearGradient>
<linearGradient id="paint9_linear_14_4391" x1="105.923" y1="342.428" x2="133.783" y2="342.428" gradientUnits="userSpaceOnUse">
<stop stop-color="#DAE3FE"/>
<stop offset="1" stop-color="#E9EFFD"/>
</linearGradient>
<linearGradient id="paint10_linear_14_4391" x1="167.771" y1="362.646" x2="195.697" y2="362.646" gradientUnits="userSpaceOnUse">
<stop stop-color="#DAE3FE"/>
<stop offset="1" stop-color="#E9EFFD"/>
</linearGradient>
<linearGradient id="paint11_linear_14_4391" x1="136.712" y1="362.613" x2="164.582" y2="362.613" gradientUnits="userSpaceOnUse">
<stop stop-color="#DAE3FE"/>
<stop offset="1" stop-color="#E9EFFD"/>
</linearGradient>
<linearGradient id="paint12_linear_14_4391" x1="105.686" y1="362.579" x2="133.498" y2="362.579" gradientUnits="userSpaceOnUse">
<stop stop-color="#DAE3FE"/>
<stop offset="1" stop-color="#E9EFFD"/>
</linearGradient>
<linearGradient id="paint13_linear_14_4391" x1="167.427" y1="382.747" x2="195.304" y2="382.747" gradientUnits="userSpaceOnUse">
<stop stop-color="#DAE3FE"/>
<stop offset="1" stop-color="#E9EFFD"/>
</linearGradient>
<linearGradient id="paint14_linear_14_4391" x1="136.422" y1="382.705" x2="164.243" y2="382.705" gradientUnits="userSpaceOnUse">
<stop stop-color="#DAE3FE"/>
<stop offset="1" stop-color="#E9EFFD"/>
</linearGradient>
<linearGradient id="paint15_linear_14_4391" x1="105.448" y1="382.662" x2="133.212" y2="382.662" gradientUnits="userSpaceOnUse">
<stop stop-color="#DAE3FE"/>
<stop offset="1" stop-color="#E9EFFD"/>
</linearGradient>
<linearGradient id="paint16_linear_14_4391" x1="167.083" y1="402.781" x2="194.912" y2="402.781" gradientUnits="userSpaceOnUse">
<stop stop-color="#DAE3FE"/>
<stop offset="1" stop-color="#E9EFFD"/>
</linearGradient>
<linearGradient id="paint17_linear_14_4391" x1="136.132" y1="402.727" x2="163.904" y2="402.727" gradientUnits="userSpaceOnUse">
<stop stop-color="#DAE3FE"/>
<stop offset="1" stop-color="#E9EFFD"/>
</linearGradient>
<linearGradient id="paint18_linear_14_4391" x1="105.212" y1="402.674" x2="132.928" y2="402.674" gradientUnits="userSpaceOnUse">
<stop stop-color="#DAE3FE"/>
<stop offset="1" stop-color="#E9EFFD"/>
</linearGradient>
<linearGradient id="paint19_linear_14_4391" x1="166.741" y1="422.744" x2="194.521" y2="422.744" gradientUnits="userSpaceOnUse">
<stop stop-color="#DAE3FE"/>
<stop offset="1" stop-color="#E9EFFD"/>
</linearGradient>
<linearGradient id="paint20_linear_14_4391" x1="135.844" y1="422.682" x2="163.568" y2="422.682" gradientUnits="userSpaceOnUse">
<stop stop-color="#DAE3FE"/>
<stop offset="1" stop-color="#E9EFFD"/>
</linearGradient>
<linearGradient id="paint21_linear_14_4391" x1="104.978" y1="422.618" x2="132.644" y2="422.618" gradientUnits="userSpaceOnUse">
<stop stop-color="#DAE3FE"/>
<stop offset="1" stop-color="#E9EFFD"/>
</linearGradient>
<linearGradient id="paint22_linear_14_4391" x1="166.4" y1="442.639" x2="194.133" y2="442.639" gradientUnits="userSpaceOnUse">
<stop stop-color="#DAE3FE"/>
<stop offset="1" stop-color="#E9EFFD"/>
</linearGradient>
<linearGradient id="paint23_linear_14_4391" x1="135.556" y1="442.566" x2="163.232" y2="442.566" gradientUnits="userSpaceOnUse">
<stop stop-color="#DAE3FE"/>
<stop offset="1" stop-color="#E9EFFD"/>
</linearGradient>
<linearGradient id="paint24_linear_14_4391" x1="104.743" y1="442.494" x2="132.361" y2="442.494" gradientUnits="userSpaceOnUse">
<stop stop-color="#DAE3FE"/>
<stop offset="1" stop-color="#E9EFFD"/>
</linearGradient>
<linearGradient id="paint25_linear_14_4391" x1="166.06" y1="462.465" x2="193.745" y2="462.465" gradientUnits="userSpaceOnUse">
<stop stop-color="#DAE3FE"/>
<stop offset="1" stop-color="#E9EFFD"/>
</linearGradient>
<linearGradient id="paint26_linear_14_4391" x1="135.269" y1="462.383" x2="162.897" y2="462.383" gradientUnits="userSpaceOnUse">
<stop stop-color="#DAE3FE"/>
<stop offset="1" stop-color="#E9EFFD"/>
</linearGradient>
<linearGradient id="paint27_linear_14_4391" x1="104.509" y1="462.3" x2="132.08" y2="462.3" gradientUnits="userSpaceOnUse">
<stop stop-color="#DAE3FE"/>
<stop offset="1" stop-color="#E9EFFD"/>
</linearGradient>
<linearGradient id="paint28_linear_14_4391" x1="393.217" y1="-51.2767" x2="312.689" y2="418.621" gradientUnits="userSpaceOnUse">
<stop stop-color="#4042E2"/>
<stop offset="1" stop-color="#4F52FF"/>
</linearGradient>
<linearGradient id="paint29_linear_14_4391" x1="255.925" y1="337.023" x2="398.41" y2="337.023" gradientUnits="userSpaceOnUse">
<stop stop-color="#4042E2"/>
<stop offset="1" stop-color="#4F52FF"/>
</linearGradient>
<linearGradient id="paint30_linear_14_4391" x1="338.263" y1="179.992" x2="381.589" y2="79.9781" gradientUnits="userSpaceOnUse">
<stop stop-color="#09005D"/>
<stop offset="1" stop-color="#1A0F91"/>
</linearGradient>
<linearGradient id="paint31_linear_14_4391" x1="342.205" y1="244.778" x2="244.711" y2="920.733" gradientUnits="userSpaceOnUse">
<stop stop-color="#FEBBBA"/>
<stop offset="1" stop-color="#EA5504"/>
</linearGradient>
<linearGradient id="paint32_linear_14_4391" x1="339.646" y1="244.409" x2="242.152" y2="920.364" gradientUnits="userSpaceOnUse">
<stop stop-color="#FEBBBA"/>
<stop offset="1" stop-color="#FF928E"/>
</linearGradient>
<linearGradient id="paint33_linear_14_4391" x1="152.631" y1="477.494" x2="168.451" y2="477.494" gradientUnits="userSpaceOnUse">
<stop stop-color="#09005D"/>
<stop offset="1" stop-color="#1A0F91"/>
</linearGradient>
<linearGradient id="paint34_linear_14_4391" x1="157.03" y1="459.49" x2="154.011" y2="485.853" gradientUnits="userSpaceOnUse">
<stop stop-color="#FEBBBA"/>
<stop offset="1" stop-color="#FF928E"/>
</linearGradient>
<linearGradient id="paint35_linear_14_4391" x1="176.72" y1="477.896" x2="199.493" y2="477.896" gradientUnits="userSpaceOnUse">
<stop stop-color="#09005D"/>
<stop offset="1" stop-color="#1A0F91"/>
</linearGradient>
<linearGradient id="paint36_linear_14_4391" x1="181.25" y1="462.293" x2="179.897" y2="488.795" gradientUnits="userSpaceOnUse">
<stop stop-color="#FEBBBA"/>
<stop offset="1" stop-color="#FF928E"/>
</linearGradient>
<linearGradient id="paint37_linear_14_4391" x1="177.059" y1="484.361" x2="145.801" y2="335.262" gradientUnits="userSpaceOnUse">
<stop stop-color="#09005D"/>
<stop offset="1" stop-color="#1A0F91"/>
</linearGradient>
<linearGradient id="paint38_linear_14_4391" x1="209.004" y1="280.643" x2="139.917" y2="356.886" gradientUnits="userSpaceOnUse">
<stop stop-color="#4042E2"/>
<stop offset="1" stop-color="#4F52FF"/>
</linearGradient>
<linearGradient id="paint39_linear_14_4391" x1="195.568" y1="284.876" x2="94.8763" y2="469.75" gradientUnits="userSpaceOnUse">
<stop stop-color="#4042E2"/>
<stop offset="1" stop-color="#4F52FF"/>
</linearGradient>
<linearGradient id="paint40_linear_14_4391" x1="169.085" y1="305.83" x2="176.1" y2="286.67" gradientUnits="userSpaceOnUse">
<stop stop-color="#FEBBBA"/>
<stop offset="1" stop-color="#FF928E"/>
</linearGradient>
<linearGradient id="paint41_linear_14_4391" x1="175.158" y1="244.077" x2="171.9" y2="268.968" gradientUnits="userSpaceOnUse">
<stop stop-color="#4042E2"/>
<stop offset="1" stop-color="#4F52FF"/>
</linearGradient>
<linearGradient id="paint42_linear_14_4391" x1="180.862" y1="244.824" x2="177.602" y2="269.715" gradientUnits="userSpaceOnUse">
<stop stop-color="#4042E2"/>
<stop offset="1" stop-color="#4F52FF"/>
</linearGradient>
<linearGradient id="paint43_linear_14_4391" x1="186.336" y1="277.091" x2="144.53" y2="310.398" gradientUnits="userSpaceOnUse">
<stop stop-color="#FEBBBA"/>
<stop offset="1" stop-color="#FF928E"/>
</linearGradient>
<linearGradient id="paint44_linear_14_4391" x1="170.192" y1="266.139" x2="189.351" y2="290.813" gradientUnits="userSpaceOnUse">
<stop stop-color="#09005D"/>
<stop offset="1" stop-color="#1A0F91"/>
</linearGradient>
<linearGradient id="paint45_linear_14_4391" x1="182.126" y1="275.267" x2="161.553" y2="291.014" gradientUnits="userSpaceOnUse">
<stop stop-color="#FEBBBA"/>
<stop offset="1" stop-color="#FF928E"/>
</linearGradient>
<linearGradient id="paint46_linear_14_4391" x1="230.831" y1="285.668" x2="187.272" y2="323.307" gradientUnits="userSpaceOnUse">
<stop stop-color="#FEBBBA"/>
<stop offset="1" stop-color="#FF928E"/>
</linearGradient>
<linearGradient id="paint47_linear_14_4391" x1="231.74" y1="289.175" x2="189.339" y2="325.813" gradientUnits="userSpaceOnUse">
<stop stop-color="#FEBBBA"/>
<stop offset="1" stop-color="#FF928E"/>
</linearGradient>
<linearGradient id="paint48_linear_14_4391" x1="232.444" y1="287.533" x2="188.885" y2="325.173" gradientUnits="userSpaceOnUse">
<stop stop-color="#FEBBBA"/>
<stop offset="1" stop-color="#FF928E"/>
</linearGradient>
<linearGradient id="paint49_linear_14_4391" x1="177.44" y1="210.609" x2="287.573" y2="356.048" gradientUnits="userSpaceOnUse">
<stop stop-color="#E1473D"/>
<stop offset="1" stop-color="#E9605A"/>
</linearGradient>
<linearGradient id="paint50_linear_14_4391" x1="295.298" y1="236.327" x2="274.841" y2="336.697" gradientUnits="userSpaceOnUse">
<stop stop-color="#FE7062"/>
<stop offset="1" stop-color="#FF928E"/>
</linearGradient>
<linearGradient id="paint51_linear_14_4391" x1="189.433" y1="283.824" x2="362.216" y2="296.755" gradientUnits="userSpaceOnUse">
<stop stop-color="#FF9085"/>
<stop offset="1" stop-color="#FB6FBB"/>
</linearGradient>
<linearGradient id="paint52_linear_14_4391" x1="291.045" y1="164.239" x2="283.936" y2="178.021" gradientUnits="userSpaceOnUse">
<stop stop-color="#FE7062"/>
<stop offset="1" stop-color="#FF928E"/>
</linearGradient>
<linearGradient id="paint53_linear_14_4391" x1="204.882" y1="318.432" x2="184.181" y2="421.774" gradientUnits="userSpaceOnUse">
<stop stop-color="#FEBBBA"/>
<stop offset="1" stop-color="#FF928E"/>
</linearGradient>
<clipPath id="clip0_14_4391">
<rect width="503" height="600" fill="white"/>
</clipPath>
</defs>
</svg>
