<svg width="24" height="24" viewBox="0 0 24 24" fill="none" xmlns="http://www.w3.org/2000/svg">
<path d="M12 5.6C11.4575 5.6 11.0002 6.0384 11.0002 6.6C11.0002 7.1616 11.4575 7.6 12 7.6C12.5425 7.6 12.9998 7.1616 12.9998 6.6C12.9998 6.0384 12.5425 5.6 12 5.6ZM9.36382 6.6C9.36382 5.1736 10.5338 4 12 4C13.4654 4 14.6362 5.1736 14.6362 6.6C14.6374 7.1466 14.4623 7.67965 14.136 8.12342C13.8096 8.56719 13.3485 8.89911 12.8182 9.072V9.7408L15.9674 11.5408V15.1064L16.6366 15.4352C17.1138 15.025 17.7276 14.7992 18.363 14.8C19.83 14.8 21 15.9736 21 17.4C21 18.8264 19.8292 20 18.3638 20C16.8985 20 15.7276 18.8264 15.7276 17.4C15.7276 17.1984 15.7505 17.0016 15.7947 16.812L15.1786 16.5096L12 18.3264L8.82136 16.5104L8.20527 16.8128C8.24945 17.0016 8.27236 17.1984 8.27236 17.4C8.27236 18.8264 7.10236 20 5.63618 20C4.17082 20 3 18.8264 3 17.4C3 15.9736 4.17082 14.8 5.63618 14.8C6.29891 14.8 6.90273 15.04 7.36418 15.436L8.03264 15.1072V11.5408L11.1818 9.7408V9.0728C10.6514 8.89987 10.1902 8.56783 9.86379 8.1239C9.53741 7.67997 9.36247 7.14673 9.36382 6.6ZM12 11.1264L9.669 12.4592V15.1408L12 16.4736L14.331 15.1408V12.4592L12 11.1264ZM6.45682 16.8272C6.36585 16.6961 6.24357 16.5887 6.10057 16.5143C5.95758 16.4399 5.79818 16.4006 5.63618 16.4C5.09455 16.4 4.63636 16.8384 4.63636 17.4C4.63636 17.9616 5.09373 18.4 5.63618 18.4C6.17945 18.4 6.636 17.9616 6.636 17.4C6.636 17.2832 6.61636 17.1712 6.58036 17.0672L6.45682 16.8272ZM17.4196 17.0696C17.3826 17.176 17.3638 17.2876 17.364 17.4C17.364 17.9616 17.8205 18.4 18.3638 18.4C18.9063 18.4 19.3636 17.9616 19.3636 17.4C19.3636 16.8384 18.9063 16.4 18.3638 16.4C18.0284 16.4 17.7265 16.5672 17.544 16.8264L17.4196 17.0696Z" fill="#222222"/>
</svg>
