<svg width="24" height="24" viewBox="0 0 24 24" fill="none" xmlns="http://www.w3.org/2000/svg">
<path d="M18.4762 9H16.5029L15.741 8.25H13.9048C13.501 8.25119 13.1141 8.4096 12.8286 8.69065C12.5431 8.9717 12.3822 9.35254 12.381 9.75V12.75C12.3822 13.1475 12.5431 13.5283 12.8286 13.8093C13.1141 14.0904 13.501 14.2488 13.9048 14.25H18.4762C18.88 14.2488 19.2668 14.0904 19.5524 13.8093C19.8379 13.5283 19.9988 13.1475 20 12.75V10.5C19.9988 10.1025 19.8379 9.7217 19.5524 9.44065C19.2668 9.1596 18.88 9.00119 18.4762 9ZM18.4762 12.75H13.9048V9.75H15.4286L16.1905 10.5H18.4762V12.75ZM18.4762 15.75H16.5029L15.741 15H13.9048C13.501 15.0012 13.1141 15.1596 12.8286 15.4407C12.5431 15.7217 12.3822 16.1025 12.381 16.5V19.5C12.3822 19.8975 12.5431 20.2783 12.8286 20.5593C13.1141 20.8404 13.501 20.9988 13.9048 21H18.4762C18.88 20.9988 19.2668 20.8404 19.5524 20.5593C19.8379 20.2783 19.9988 19.8975 20 19.5V17.25C19.9988 16.8525 19.8379 16.4717 19.5524 16.1907C19.2668 15.9096 18.88 15.7512 18.4762 15.75ZM18.4762 19.5H13.9048V16.5H15.4286L16.1905 17.25H18.4762V19.5ZM8.57143 17.25V12H12.381V10.5H8.57143V9H7.04762V18.75H12.381V17.25H8.57143ZM10.0952 3.75H8.1219L7.36 3H5.52381C5.12004 3.00119 4.73315 3.1596 4.44765 3.44065C4.16214 3.7217 4.00121 4.10254 4 4.5V7.5C4.00121 7.89746 4.16214 8.2783 4.44765 8.55935C4.73315 8.8404 5.12004 8.99881 5.52381 9H10.0952C10.499 8.99881 10.8859 8.8404 11.1714 8.55935C11.4569 8.2783 11.6178 7.89746 11.619 7.5V5.25C11.6178 4.85254 11.4569 4.4717 11.1714 4.19065C10.8859 3.9096 10.499 3.75119 10.0952 3.75ZM10.0952 7.5H5.52381V4.5H7.04762L7.80952 5.25H10.0952V7.5Z" fill="#222222"/>
</svg>
