<svg width="147" height="40" viewBox="0 0 147 40" fill="none" xmlns="http://www.w3.org/2000/svg">
<rect x="0.5" y="0.5" width="146" height="39" rx="19.5" stroke="#E9E9E9"/>
<path d="M20 35C16.0218 35 12.2064 33.4196 9.3934 30.6066C6.58035 27.7936 5 23.9782 5 20C5 16.0218 6.58035 12.2064 9.3934 9.3934C12.2064 6.58035 16.0218 5 20 5C23.9782 5 27.7936 6.58035 30.6066 9.3934C33.4196 12.2064 35 16.0218 35 20C35 23.9782 33.4196 27.7936 30.6066 30.6066C27.7936 33.4196 23.9782 35 20 35ZM21.5881 19.7281C22.6273 19.3542 23.5013 18.6257 24.0562 17.6708C24.6111 16.7159 24.8112 15.5958 24.6215 14.5078C24.4317 13.4198 23.8642 12.4337 23.0188 11.723C22.1734 11.0123 21.1044 10.6226 20 10.6226C18.8956 10.6226 17.8266 11.0123 16.9812 11.723C16.1358 12.4337 15.5683 13.4198 15.3785 14.5078C15.1888 15.5958 15.3889 16.7159 15.9438 17.6708C16.4987 18.6257 17.3727 19.3542 18.4119 19.7281C15.2581 20.4894 12.5 23.3281 12.5 25.625C12.5 26.3656 12.7719 27.4906 14.375 27.4906H25.625C27.2281 27.4906 27.5 26.3656 27.5 25.625C27.5 23.33 24.7437 20.4875 21.5881 19.7281Z" fill="#73CF2A"/>
<path d="M51.5391 14.125H53.4922V21.7266C53.4922 22.5911 53.3047 23.3151 52.9297 23.8984C52.5547 24.4818 52.0443 24.9219 51.3984 25.2188C50.7578 25.5104 50.0417 25.6562 49.25 25.6562C48.4323 25.6562 47.7031 25.5104 47.0625 25.2188C46.4219 24.9219 45.9167 24.4818 45.5469 23.8984C45.1823 23.3151 45 22.5911 45 21.7266V14.125H46.9531V21.7266C46.9531 22.2734 47.0469 22.724 47.2344 23.0781C47.4219 23.4271 47.6875 23.6849 48.0312 23.8516C48.375 24.0182 48.7812 24.1016 49.25 24.1016C49.7188 24.1016 50.1224 24.0182 50.4609 23.8516C50.8047 23.6849 51.0703 23.4271 51.2578 23.0781C51.4453 22.724 51.5391 22.2734 51.5391 21.7266V14.125ZM60.1797 23.2109C60.1797 23.0234 60.1328 22.8542 60.0391 22.7031C59.9453 22.5469 59.7656 22.4062 59.5 22.2812C59.2396 22.1562 58.8542 22.0417 58.3438 21.9375C57.8958 21.8385 57.4844 21.7214 57.1094 21.5859C56.7396 21.4453 56.4219 21.276 56.1562 21.0781C55.8906 20.8802 55.6849 20.6458 55.5391 20.375C55.3932 20.1042 55.3203 19.7917 55.3203 19.4375C55.3203 19.0938 55.3958 18.7682 55.5469 18.4609C55.6979 18.1536 55.9141 17.8828 56.1953 17.6484C56.4766 17.4141 56.8177 17.2292 57.2188 17.0938C57.625 16.9583 58.0781 16.8906 58.5781 16.8906C59.2865 16.8906 59.8932 17.0104 60.3984 17.25C60.9089 17.4844 61.2995 17.8047 61.5703 18.2109C61.8411 18.612 61.9766 19.0651 61.9766 19.5703H60.0938C60.0938 19.3464 60.0365 19.138 59.9219 18.9453C59.8125 18.7474 59.6458 18.5885 59.4219 18.4688C59.1979 18.3438 58.9167 18.2812 58.5781 18.2812C58.2552 18.2812 57.987 18.3333 57.7734 18.4375C57.5651 18.5365 57.4089 18.6667 57.3047 18.8281C57.2057 18.9896 57.1562 19.1667 57.1562 19.3594C57.1562 19.5 57.1823 19.6276 57.2344 19.7422C57.2917 19.8516 57.3854 19.9531 57.5156 20.0469C57.6458 20.1354 57.8229 20.2188 58.0469 20.2969C58.276 20.375 58.5625 20.4505 58.9062 20.5234C59.5521 20.6589 60.1068 20.8333 60.5703 21.0469C61.0391 21.2552 61.3984 21.526 61.6484 21.8594C61.8984 22.1875 62.0234 22.6042 62.0234 23.1094C62.0234 23.4844 61.9427 23.8281 61.7812 24.1406C61.625 24.4479 61.3958 24.7161 61.0938 24.9453C60.7917 25.1693 60.4297 25.3438 60.0078 25.4688C59.5911 25.5938 59.1224 25.6562 58.6016 25.6562C57.8359 25.6562 57.1875 25.5208 56.6562 25.25C56.125 24.974 55.7214 24.6224 55.4453 24.1953C55.1745 23.763 55.0391 23.3151 55.0391 22.8516H56.8594C56.8802 23.2005 56.9766 23.4792 57.1484 23.6875C57.3255 23.8906 57.5443 24.0391 57.8047 24.1328C58.0703 24.2214 58.3438 24.2656 58.625 24.2656C58.9635 24.2656 59.2474 24.2214 59.4766 24.1328C59.7057 24.0391 59.8802 23.9141 60 23.7578C60.1198 23.5964 60.1797 23.4141 60.1797 23.2109ZM67.3984 25.6562C66.7734 25.6562 66.2083 25.5547 65.7031 25.3516C65.2031 25.1432 64.776 24.8542 64.4219 24.4844C64.0729 24.1146 63.8047 23.6797 63.6172 23.1797C63.4297 22.6797 63.3359 22.1406 63.3359 21.5625V21.25C63.3359 20.5885 63.4323 19.9896 63.625 19.4531C63.8177 18.9167 64.0859 18.4583 64.4297 18.0781C64.7734 17.6927 65.1797 17.3984 65.6484 17.1953C66.1172 16.9922 66.625 16.8906 67.1719 16.8906C67.776 16.8906 68.3047 16.9922 68.7578 17.1953C69.2109 17.3984 69.5859 17.6849 69.8828 18.0547C70.1849 18.4193 70.4089 18.8542 70.5547 19.3594C70.7057 19.8646 70.7812 20.4219 70.7812 21.0312V21.8359H64.25V20.4844H68.9219V20.3359C68.9115 19.9974 68.8438 19.6797 68.7188 19.3828C68.599 19.0859 68.4141 18.8464 68.1641 18.6641C67.9141 18.4818 67.5807 18.3906 67.1641 18.3906C66.8516 18.3906 66.5729 18.4583 66.3281 18.5938C66.0885 18.724 65.888 18.9141 65.7266 19.1641C65.5651 19.4141 65.4401 19.7161 65.3516 20.0703C65.2682 20.4193 65.2266 20.8125 65.2266 21.25V21.5625C65.2266 21.9323 65.276 22.276 65.375 22.5938C65.4792 22.9062 65.6302 23.1797 65.8281 23.4141C66.026 23.6484 66.2656 23.8333 66.5469 23.9688C66.8281 24.099 67.1484 24.1641 67.5078 24.1641C67.9609 24.1641 68.3646 24.0729 68.7188 23.8906C69.0729 23.7083 69.3802 23.4505 69.6406 23.1172L70.6328 24.0781C70.4505 24.3438 70.2135 24.599 69.9219 24.8438C69.6302 25.0833 69.2734 25.2786 68.8516 25.4297C68.4349 25.5807 67.9505 25.6562 67.3984 25.6562ZM74.1406 18.6562V25.5H72.2578V17.0469H74.0547L74.1406 18.6562ZM76.7266 16.9922L76.7109 18.7422C76.5964 18.7214 76.4714 18.7057 76.3359 18.6953C76.2057 18.6849 76.0755 18.6797 75.9453 18.6797C75.6224 18.6797 75.3385 18.7266 75.0938 18.8203C74.849 18.9089 74.6432 19.0391 74.4766 19.2109C74.3151 19.3776 74.1901 19.5807 74.1016 19.8203C74.013 20.0599 73.9609 20.3281 73.9453 20.625L73.5156 20.6562C73.5156 20.125 73.5677 19.6328 73.6719 19.1797C73.776 18.7266 73.9323 18.3281 74.1406 17.9844C74.3542 17.6406 74.6198 17.3724 74.9375 17.1797C75.2604 16.987 75.6328 16.8906 76.0547 16.8906C76.1693 16.8906 76.2917 16.901 76.4219 16.9219C76.5573 16.9427 76.6589 16.9661 76.7266 16.9922ZM79.7734 18.8516V25.5H77.8906V17.0469H79.6641L79.7734 18.8516ZM79.4375 20.9609L78.8281 20.9531C78.8333 20.3542 78.9167 19.8047 79.0781 19.3047C79.2448 18.8047 79.474 18.375 79.7656 18.0156C80.0625 17.6562 80.4167 17.3802 80.8281 17.1875C81.2396 16.9896 81.6979 16.8906 82.2031 16.8906C82.6094 16.8906 82.9766 16.9479 83.3047 17.0625C83.638 17.1719 83.9219 17.3516 84.1562 17.6016C84.3958 17.8516 84.5781 18.1771 84.7031 18.5781C84.8281 18.974 84.8906 19.4609 84.8906 20.0391V25.5H83V20.0312C83 19.625 82.9401 19.3047 82.8203 19.0703C82.7057 18.8307 82.5365 18.6615 82.3125 18.5625C82.0938 18.4583 81.8203 18.4062 81.4922 18.4062C81.1693 18.4062 80.8802 18.474 80.625 18.6094C80.3698 18.7448 80.1536 18.9297 79.9766 19.1641C79.8047 19.3984 79.6719 19.6693 79.5781 19.9766C79.4844 20.2839 79.4375 20.612 79.4375 20.9609ZM91.5781 23.8047V19.7734C91.5781 19.4714 91.5234 19.2109 91.4141 18.9922C91.3047 18.7734 91.138 18.6042 90.9141 18.4844C90.6953 18.3646 90.4193 18.3047 90.0859 18.3047C89.7786 18.3047 89.513 18.3568 89.2891 18.4609C89.0651 18.5651 88.8906 18.7057 88.7656 18.8828C88.6406 19.0599 88.5781 19.2604 88.5781 19.4844H86.7031C86.7031 19.151 86.7839 18.8281 86.9453 18.5156C87.1068 18.2031 87.3411 17.9245 87.6484 17.6797C87.9557 17.4349 88.3229 17.2422 88.75 17.1016C89.1771 16.9609 89.6562 16.8906 90.1875 16.8906C90.8229 16.8906 91.3854 16.9974 91.875 17.2109C92.3698 17.4245 92.7578 17.7474 93.0391 18.1797C93.3255 18.6068 93.4688 19.1432 93.4688 19.7891V23.5469C93.4688 23.9323 93.4948 24.2786 93.5469 24.5859C93.6042 24.888 93.6849 25.151 93.7891 25.375V25.5H91.8594C91.7708 25.2969 91.7005 25.0391 91.6484 24.7266C91.6016 24.4089 91.5781 24.1016 91.5781 23.8047ZM91.8516 20.3594L91.8672 21.5234H90.5156C90.1667 21.5234 89.8594 21.5573 89.5938 21.625C89.3281 21.6875 89.1068 21.7812 88.9297 21.9062C88.7526 22.0312 88.6198 22.1823 88.5312 22.3594C88.4427 22.5365 88.3984 22.737 88.3984 22.9609C88.3984 23.1849 88.4505 23.3906 88.5547 23.5781C88.6589 23.7604 88.8099 23.9036 89.0078 24.0078C89.2109 24.112 89.4557 24.1641 89.7422 24.1641C90.1276 24.1641 90.4635 24.0859 90.75 23.9297C91.0417 23.7682 91.2708 23.5729 91.4375 23.3438C91.6042 23.1094 91.6927 22.888 91.7031 22.6797L92.3125 23.5156C92.25 23.7292 92.1432 23.9583 91.9922 24.2031C91.8411 24.4479 91.6432 24.6823 91.3984 24.9062C91.1589 25.125 90.8698 25.3047 90.5312 25.4453C90.1979 25.5859 89.8125 25.6562 89.375 25.6562C88.8229 25.6562 88.3307 25.5469 87.8984 25.3281C87.4661 25.1042 87.1276 24.8047 86.8828 24.4297C86.638 24.0495 86.5156 23.6198 86.5156 23.1406C86.5156 22.6927 86.599 22.2969 86.7656 21.9531C86.9375 21.6042 87.1875 21.3125 87.5156 21.0781C87.849 20.8438 88.2552 20.6667 88.7344 20.5469C89.2135 20.4219 89.7604 20.3594 90.375 20.3594H91.8516ZM97.3203 18.7656V25.5H95.4375V17.0469H97.2109L97.3203 18.7656ZM97.0156 20.9609L96.375 20.9531C96.375 20.3698 96.4479 19.8307 96.5938 19.3359C96.7396 18.8411 96.9531 18.4115 97.2344 18.0469C97.5156 17.6771 97.8646 17.3932 98.2812 17.1953C98.7031 16.9922 99.1901 16.8906 99.7422 16.8906C100.128 16.8906 100.479 16.9479 100.797 17.0625C101.12 17.1719 101.398 17.3464 101.633 17.5859C101.872 17.8255 102.055 18.1328 102.18 18.5078C102.31 18.8828 102.375 19.3359 102.375 19.8672V25.5H100.492V20.0312C100.492 19.6198 100.43 19.2969 100.305 19.0625C100.185 18.8281 100.01 18.6615 99.7812 18.5625C99.5573 18.4583 99.2891 18.4062 98.9766 18.4062C98.6224 18.4062 98.3203 18.474 98.0703 18.6094C97.8255 18.7448 97.625 18.9297 97.4688 19.1641C97.3125 19.3984 97.1979 19.6693 97.125 19.9766C97.0521 20.2839 97.0156 20.612 97.0156 20.9609ZM102.258 20.4609L101.375 20.6562C101.375 20.1458 101.445 19.6641 101.586 19.2109C101.732 18.7526 101.943 18.3516 102.219 18.0078C102.5 17.6589 102.846 17.3854 103.258 17.1875C103.669 16.9896 104.141 16.8906 104.672 16.8906C105.104 16.8906 105.49 16.9505 105.828 17.0703C106.172 17.1849 106.464 17.3672 106.703 17.6172C106.943 17.8672 107.125 18.1927 107.25 18.5938C107.375 18.9896 107.438 19.4688 107.438 20.0312V25.5H105.547V20.0234C105.547 19.5964 105.484 19.2656 105.359 19.0312C105.24 18.7969 105.068 18.6354 104.844 18.5469C104.62 18.4531 104.352 18.4062 104.039 18.4062C103.747 18.4062 103.49 18.4609 103.266 18.5703C103.047 18.6745 102.862 18.8229 102.711 19.0156C102.56 19.2031 102.445 19.4193 102.367 19.6641C102.294 19.9089 102.258 20.1745 102.258 20.4609ZM113.102 25.6562C112.477 25.6562 111.911 25.5547 111.406 25.3516C110.906 25.1432 110.479 24.8542 110.125 24.4844C109.776 24.1146 109.508 23.6797 109.32 23.1797C109.133 22.6797 109.039 22.1406 109.039 21.5625V21.25C109.039 20.5885 109.135 19.9896 109.328 19.4531C109.521 18.9167 109.789 18.4583 110.133 18.0781C110.477 17.6927 110.883 17.3984 111.352 17.1953C111.82 16.9922 112.328 16.8906 112.875 16.8906C113.479 16.8906 114.008 16.9922 114.461 17.1953C114.914 17.3984 115.289 17.6849 115.586 18.0547C115.888 18.4193 116.112 18.8542 116.258 19.3594C116.409 19.8646 116.484 20.4219 116.484 21.0312V21.8359H109.953V20.4844H114.625V20.3359C114.615 19.9974 114.547 19.6797 114.422 19.3828C114.302 19.0859 114.117 18.8464 113.867 18.6641C113.617 18.4818 113.284 18.3906 112.867 18.3906C112.555 18.3906 112.276 18.4583 112.031 18.5938C111.792 18.724 111.591 18.9141 111.43 19.1641C111.268 19.4141 111.143 19.7161 111.055 20.0703C110.971 20.4193 110.93 20.8125 110.93 21.25V21.5625C110.93 21.9323 110.979 22.276 111.078 22.5938C111.182 22.9062 111.333 23.1797 111.531 23.4141C111.729 23.6484 111.969 23.8333 112.25 23.9688C112.531 24.099 112.852 24.1641 113.211 24.1641C113.664 24.1641 114.068 24.0729 114.422 23.8906C114.776 23.7083 115.083 23.4505 115.344 23.1172L116.336 24.0781C116.154 24.3438 115.917 24.599 115.625 24.8438C115.333 25.0833 114.977 25.2786 114.555 25.4297C114.138 25.5807 113.654 25.6562 113.102 25.6562Z" fill="#828282"/>
<path d="M129 20.7813L132.3 17.4813L133.243 18.424L129 22.6666L124.757 18.424L125.701 17.4813L129.001 20.7813L129 20.7813Z" fill="#828282"/>
</svg>
