<svg width="16" height="16" viewBox="0 0 16 16" fill="none" xmlns="http://www.w3.org/2000/svg">
<path d="M8.00008 2.66675C8.70732 2.66675 9.3856 2.9477 9.8857 3.4478C10.3858 3.94789 10.6667 4.62617 10.6667 5.33341C10.6667 6.04066 10.3858 6.71894 9.8857 7.21903C9.3856 7.71913 8.70732 8.00008 8.00008 8.00008C7.29284 8.00008 6.61456 7.71913 6.11446 7.21903C5.61437 6.71894 5.33341 6.04066 5.33341 5.33341C5.33341 4.62617 5.61437 3.94789 6.11446 3.4478C6.61456 2.9477 7.29284 2.66675 8.00008 2.66675ZM8.00008 4.00008C7.64646 4.00008 7.30732 4.14056 7.05727 4.39061C6.80722 4.64065 6.66675 4.97979 6.66675 5.33341C6.66675 5.68704 6.80722 6.02617 7.05727 6.27622C7.30732 6.52627 7.64646 6.66675 8.00008 6.66675C8.3537 6.66675 8.69284 6.52627 8.94289 6.27622C9.19294 6.02617 9.33341 5.68704 9.33341 5.33341C9.33341 4.97979 9.19294 4.64065 8.94289 4.39061C8.69284 4.14056 8.3537 4.00008 8.00008 4.00008ZM8.00008 8.66675C9.78008 8.66675 13.3334 9.55341 13.3334 11.3334V13.3334H2.66675V11.3334C2.66675 9.55341 6.22008 8.66675 8.00008 8.66675ZM8.00008 9.93341C6.02008 9.93341 3.93341 10.9067 3.93341 11.3334V12.0667H12.0667V11.3334C12.0667 10.9067 9.98008 9.93341 8.00008 9.93341Z" fill="#464646"/>
</svg>
