<svg width="60" height="60" viewBox="0 0 60 60" fill="none" xmlns="http://www.w3.org/2000/svg">
<path d="M30 52.5C24.0326 52.5 18.3097 50.1295 14.0901 45.9099C9.87053 41.6903 7.5 35.9674 7.5 30C7.5 24.0326 9.87053 18.3097 14.0901 14.0901C18.3097 9.87053 24.0326 7.5 30 7.5C35.9674 7.5 41.6903 9.87053 45.9099 14.0901C50.1295 18.3097 52.5 24.0326 52.5 30C52.5 35.9674 50.1295 41.6903 45.9099 45.9099C41.6903 50.1295 35.9674 52.5 30 52.5ZM32.3822 29.5922C33.941 29.0314 35.252 27.9386 36.0843 26.5062C36.9166 25.0738 37.2169 23.3937 36.9322 21.7617C36.6476 20.1297 35.7963 18.6505 34.5282 17.5844C33.2602 16.5184 31.6566 15.9339 30 15.9339C28.3434 15.9339 26.7398 16.5184 25.4718 17.5844C24.2037 18.6505 23.3524 20.1297 23.0678 21.7617C22.7831 23.3937 23.0834 25.0738 23.9157 26.5062C24.748 27.9386 26.059 29.0314 27.6178 29.5922C22.8872 30.7341 18.75 34.9922 18.75 38.4375C18.75 39.5484 19.1578 41.2359 21.5625 41.2359H38.4375C40.8422 41.2359 41.25 39.5484 41.25 38.4375C41.25 34.995 37.1156 30.7313 32.3822 29.5922Z" fill="#72CF2A"/>
</svg>
